<svg xmlns="http://www.w3.org/2000/svg" xmlns:xlink="http://www.w3.org/1999/xlink" viewBox="0 0 63.52 75.16"><defs><style>.cls-1{isolation:isolate;}.cls-2{fill:url(#linear-gradient);}.cls-3{fill:#fff;}.cls-4{mix-blend-mode:multiply;fill:url(#linear-gradient-2);}.cls-5{fill:url(#linear-gradient-3);}.cls-6{fill:#57ab27;}.cls-7{fill:url(#linear-gradient-4);}.cls-8{fill:url(#linear-gradient-5);}</style><linearGradient id="linear-gradient" x1="19.16" y1="86.58" x2="19.16" y2="146.46" gradientTransform="translate(-6.35 -65.96) rotate(-10)" gradientUnits="userSpaceOnUse"><stop offset="0" stop-color="#de4226"/><stop offset="0.17" stop-color="#be0a26"/><stop offset="0.61" stop-color="#de4226"/><stop offset="0.84" stop-color="#ee813c"/><stop offset="1" stop-color="#fabd43"/></linearGradient><linearGradient id="linear-gradient-2" x1="18.94" y1="93.09" x2="18.94" y2="89.83" gradientTransform="translate(-6.35 -65.96) rotate(-10)" gradientUnits="userSpaceOnUse"><stop offset="0" stop-color="#d9dadb"/><stop offset="1" stop-color="#fff"/></linearGradient><linearGradient id="linear-gradient-3" x1="19.24" y1="76.55" x2="19.24" y2="90.46" gradientTransform="translate(-6.35 -65.96) rotate(-10)" gradientUnits="userSpaceOnUse"><stop offset="0" stop-color="#9b5e3f"/><stop offset="1" stop-color="#6f3d26"/></linearGradient><linearGradient id="linear-gradient-4" x1="21.79" y1="78.31" x2="49.46" y2="78.31" gradientTransform="translate(-6.35 -65.96) rotate(-10)" gradientUnits="userSpaceOnUse"><stop offset="0" stop-color="#00892c"/><stop offset="1" stop-color="#006b2a"/></linearGradient><linearGradient id="linear-gradient-5" x1="21.79" y1="83.23" x2="49.46" y2="83.23" gradientTransform="translate(-6.35 -65.96) rotate(-10)" gradientUnits="userSpaceOnUse"><stop offset="0" stop-color="#7ab51d"/><stop offset="1" stop-color="#008e30"/></linearGradient></defs><g class="cls-1"><path class="cls-2" d="M27.68,16.74c-12.41-1-36.9,10.16-24.06,38.2,12.2,26.67,30.73,19.73,34.05,18.48,3.55,0,23.34.22,25.69-29C65.83,13.67,39,11.59,27.68,16.74Z"/><path class="cls-3" d="M15.82,29c-.56,2.63-4.19,5.78-6.38,3.63-1-1-.58-3.13,0-4.24a4.06,4.06,0,0,1,4-2.25C15.55,26.35,16.13,27.6,15.82,29Z"/><path class="cls-4" d="M20.06,20.05c2.86,4.32,14.8,2.91,15.49-2.74"/><path class="cls-5" d="M27.75,6.21A31.87,31.87,0,0,0,29.4,21.64c-.17.69-1.43.74-1.82.32C25.64,16.88,24.26,9.41,25.52,5.7,26.26,4.79,27.75,6.21,27.75,6.21Z"/><path class="cls-3" d="M7.16,37.54c0-1.63,3-2.42,2.91-.38C10,38.86,7.09,39.57,7.16,37.54Z"/><path class="cls-6" d="M29.82,11.32l-2,1.61s-1,1.36-.11,1.6.2-.91,3-2.77"/><path class="cls-7" d="M29.49,11.84C32.73,1.33,45.85-3.75,56.06,3.18,44.37,5.18,29.49,11.84,29.49,11.84Z"/><path class="cls-8" d="M54.88,2.89l1.18.29c-1.29,3.76-13.54,21-26.57,8.66C31.64,9.49,42.78,1.7,54.88,2.89Z"/></g></svg>