<?xml version="1.0" encoding="utf-8"?>
<!-- Generator: Adobe Illustrator 22.0.1, SVG Export Plug-In . SVG Version: 6.00 Build 0)  -->
<svg version="1.0" xmlns="http://www.w3.org/2000/svg" xmlns:xlink="http://www.w3.org/1999/xlink" x="0px" y="0px"
	 viewBox="0 0 253.4 749.7" enable-background="new 0 0 253.4 749.7" xml:space="preserve">
<g id="レイヤー_1">
</g>
<g id="文字">
	<g>
		<g>
			
				<linearGradient id="SVGID_1_" gradientUnits="userSpaceOnUse" x1="509.8204" y1="981.5038" x2="509.8204" y2="1054.7238" gradientTransform="matrix(-0.9834 0.1817 0.1817 0.9834 385.5468 -834.2169)">
				<stop  offset="0" style="stop-color:#6C4317"/>
				<stop  offset="0.4182" style="stop-color:#6D8E24"/>
			</linearGradient>
			<path fill="url(#SVGID_1_)" d="M75.5,297.6l-13.1-21.1c0,0,12.5-26.9,2.1-55.1C64.4,221.4,90.6,260.2,75.5,297.6z"/>
			
				<linearGradient id="SVGID_2_" gradientUnits="userSpaceOnUse" x1="245.4845" y1="726.7276" x2="245.4845" y2="165.863" gradientTransform="matrix(-0.9701 0.2426 0.2426 0.9701 235.2982 -29.2951)">
				<stop  offset="0" style="stop-color:#82B236"/>
				<stop  offset="0.4182" style="stop-color:#577515"/>
			</linearGradient>
			<path fill="url(#SVGID_2_)" d="M201.8,723.2c0,0-20.5,16-53.5,13.9c0,0-122.6-418.4-125.5-541.8l23.3-6.4
				C46.1,189,147.7,562.8,201.8,723.2z"/>
			
				<linearGradient id="SVGID_3_" gradientUnits="userSpaceOnUse" x1="508.8459" y1="907.8769" x2="508.8459" y2="988.1985" gradientTransform="matrix(-0.9834 0.1817 0.1817 0.9834 385.5468 -834.2169)">
				<stop  offset="0" style="stop-color:#804F1B"/>
				<stop  offset="0.4182" style="stop-color:#80A72A"/>
			</linearGradient>
			<path fill="url(#SVGID_3_)" d="M47,149.6c18.9,19.5,35.1,55,12.9,83.4l-13.2-35.8C46.6,197.2,57.7,168.6,47,149.6z"/>
			
				<linearGradient id="SVGID_4_" gradientUnits="userSpaceOnUse" x1="1312.8978" y1="957.6609" x2="1312.8978" y2="1034.259" gradientTransform="matrix(0.953 -0.3032 0.3032 0.953 -1540.8455 -351.7772)">
				<stop  offset="0" style="stop-color:#6C4317"/>
				<stop  offset="0.4182" style="stop-color:#6D8E24"/>
			</linearGradient>
			<path fill="url(#SVGID_4_)" d="M5.3,159.3c-7.5,26.1-5,65.1,22.4,77.3l-5.2-37.8C22.6,198.8,4.9,181.1,5.3,159.3z"/>
			
				<linearGradient id="SVGID_5_" gradientUnits="userSpaceOnUse" x1="533.397" y1="834.7238" x2="533.397" y2="891.8238" gradientTransform="matrix(-0.9834 0.1817 0.1817 0.9834 385.5468 -834.2169)">
				<stop  offset="0" style="stop-color:#6C4317"/>
				<stop  offset="0.4182" style="stop-color:#6D8E24"/>
			</linearGradient>
			<path fill="url(#SVGID_5_)" d="M24.1,141c8.6-8.9,15.8-25.7-12.3-58.7C3.6,105.8,3,138.3,24.1,141z"/>
			
				<linearGradient id="SVGID_6_" gradientUnits="userSpaceOnUse" x1="518.1424" y1="857.4074" x2="518.1424" y2="918.4713" gradientTransform="matrix(-0.9834 0.1817 0.1817 0.9834 385.5468 -834.2169)">
				<stop  offset="0" style="stop-color:#804F1B"/>
				<stop  offset="0.4182" style="stop-color:#80A72A"/>
			</linearGradient>
			<path fill="url(#SVGID_6_)" d="M41.7,164.9c10.6-6.4,15.8-27.5-15.8-62.3c0,0,1.1,30.5,3.6,44C32,160.1,41.7,164.9,41.7,164.9z"
				/>
			
				<linearGradient id="SVGID_7_" gradientUnits="userSpaceOnUse" x1="1373.3176" y1="858.829" x2="1373.3176" y2="919.8818" gradientTransform="matrix(0.9834 -0.1817 0.1817 0.9834 -1503.479 -484.9637)">
				<stop  offset="0" style="stop-color:#6C4317"/>
				<stop  offset="0.4182" style="stop-color:#6D8E24"/>
			</linearGradient>
			<path fill="url(#SVGID_7_)" d="M15.9,171.4c-12.1-2.1-24.6-20.1-7.5-63.8c0,0,9.9,28.8,12.4,42.3
				C23.2,163.4,15.9,171.4,15.9,171.4z"/>
			
				<linearGradient id="SVGID_8_" gradientUnits="userSpaceOnUse" x1="531.3507" y1="859.4316" x2="531.3507" y2="922.7516" gradientTransform="matrix(-0.9834 0.1817 0.1817 0.9834 385.5468 -834.2169)">
				<stop  offset="0" style="stop-color:#804F1B"/>
				<stop  offset="0.4182" style="stop-color:#80A72A"/>
			</linearGradient>
			<path fill="url(#SVGID_8_)" d="M32.3,171.1c22.8-13.9,2.8-40.9-16.1-64.7C16.1,106.4-3,165.1,32.3,171.1z"/>
			
				<linearGradient id="SVGID_9_" gradientUnits="userSpaceOnUse" x1="473.9576" y1="838.8733" x2="473.9576" y2="901.6248" gradientTransform="matrix(-0.9984 5.710000e-02 5.710000e-02 0.9984 468.8253 -722.6064)">
				<stop  offset="0" style="stop-color:#6C4317"/>
				<stop  offset="0.4182" style="stop-color:#6D8E24"/>
			</linearGradient>
			<path fill="url(#SVGID_9_)" d="M48,206.2c10.8-9.4,15.1-32.3-4.6-65.8C43.4,140.4,19.4,178.9,48,206.2z"/>
			
				<linearGradient id="SVGID_10_" gradientUnits="userSpaceOnUse" x1="1378.541" y1="897.1404" x2="1378.541" y2="959.9144" gradientTransform="matrix(0.9834 -0.1817 0.1817 0.9834 -1503.479 -484.9637)">
				<stop  offset="0" style="stop-color:#804F1B"/>
				<stop  offset="0.4182" style="stop-color:#80A72A"/>
			</linearGradient>
			<path fill="url(#SVGID_10_)" d="M26.1,210.2c-12.8-6.5-22.4-27.8-11.2-65C14.9,145.2,47.4,177,26.1,210.2z"/>
			
				<linearGradient id="SVGID_11_" gradientUnits="userSpaceOnUse" x1="532.0773" y1="901.3646" x2="532.0773" y2="964.6695" gradientTransform="matrix(-0.9834 0.1817 0.1817 0.9834 385.5468 -834.2169)">
				<stop  offset="0" style="stop-color:#804F1B"/>
				<stop  offset="0.4182" style="stop-color:#80A72A"/>
			</linearGradient>
			<path fill="url(#SVGID_11_)" d="M37.6,212.7c22.8-13.9,7.6-41.8-11.3-65.5C26.3,147.2,2.3,206.8,37.6,212.7z"/>
			
				<linearGradient id="SVGID_12_" gradientUnits="userSpaceOnUse" x1="540.87" y1="1007.7141" x2="540.87" y2="1075.1254" gradientTransform="matrix(-0.9834 0.1817 0.1817 0.9834 385.5468 -834.2169)">
				<stop  offset="0" style="stop-color:#804F1B"/>
				<stop  offset="0.4182" style="stop-color:#80A72A"/>
			</linearGradient>
			<path fill="url(#SVGID_12_)" d="M62.9,307.3L42,324.3c-8.1-8-23.7-31.6-9.5-70.2C32.5,254.1,53.4,295.8,62.9,307.3z"/>
			
				<linearGradient id="SVGID_13_" gradientUnits="userSpaceOnUse" x1="511.1937" y1="1063.2495" x2="511.1937" y2="1127.0568" gradientTransform="matrix(-0.9834 0.1817 0.1817 0.9834 385.5468 -834.2169)">
				<stop  offset="0" style="stop-color:#804F1B"/>
				<stop  offset="0.4182" style="stop-color:#80A72A"/>
			</linearGradient>
			<path fill="url(#SVGID_13_)" d="M71.4,361.5c2.3-11.4,5.3-59,5.3-59s19.6,38.3,23.3,50.8c3.8,12.5-2.5,14.4-9.1,14.2
				C84.3,367.3,71.4,361.5,71.4,361.5z"/>
			
				<linearGradient id="SVGID_14_" gradientUnits="userSpaceOnUse" x1="549.0729" y1="1107.6422" x2="549.0729" y2="1183.2902" gradientTransform="matrix(-0.9834 0.1817 0.1817 0.9834 385.5468 -834.2169)">
				<stop  offset="0" style="stop-color:#804F1B"/>
				<stop  offset="0.4182" style="stop-color:#80A72A"/>
			</linearGradient>
			<path fill="url(#SVGID_14_)" d="M66.4,400.7c0,0-15.1-25.9-17.7-48.2c-5.9,15.8-3.5,56.5-1.6,62.8c1.9,6.3,19.8,14.7,19.8,14.7
				L66.4,400.7z"/>
			
				<linearGradient id="SVGID_15_" gradientUnits="userSpaceOnUse" x1="521.2305" y1="1180.3165" x2="521.2305" y2="1243.6361" gradientTransform="matrix(-0.9834 0.1817 0.1817 0.9834 385.5468 -834.2169)">
				<stop  offset="0" style="stop-color:#804F1B"/>
				<stop  offset="0.4182" style="stop-color:#80A72A"/>
			</linearGradient>
			<path fill="url(#SVGID_15_)" d="M116.8,471.5c-0.7-7.9-23.6-28-29.4-51.9c0,0-10.8,37.3-10.3,51.9c0.5,14.6,7.4,16.3,20.9,13.8
				C111.5,482.8,116.8,471.5,116.8,471.5z"/>
			
				<linearGradient id="SVGID_16_" gradientUnits="userSpaceOnUse" x1="524.3437" y1="951.9543" x2="524.3437" y2="1015.9697" gradientTransform="matrix(-0.9834 0.1817 0.1817 0.9834 385.5468 -834.2169)">
				<stop  offset="0" style="stop-color:#804F1B"/>
				<stop  offset="0.4182" style="stop-color:#80A72A"/>
			</linearGradient>
			<path fill="url(#SVGID_16_)" d="M56.6,261.4c0,0,8.9-3.8,9.8-10.6c0.9-6.8-1.6-29.3-20.6-55.7c0,0-8.9,39.2-8.2,55.2
				C37.3,256.1,56.6,261.4,56.6,261.4z"/>
		</g>
		<g>
			
				<linearGradient id="SVGID_17_" gradientUnits="userSpaceOnUse" x1="468.318" y1="942.1014" x2="468.318" y2="1023.6967" gradientTransform="matrix(0.9981 -6.230000e-02 6.230000e-02 0.9981 -341.3231 -744.5728)">
				<stop  offset="0" style="stop-color:#6C4317"/>
				<stop  offset="0.4182" style="stop-color:#6D8E24"/>
			</linearGradient>
			<path fill="url(#SVGID_17_)" d="M190.8,250l8.5-26.3c0,0-20.8-25.7-17.1-59C182.1,164.7,164.3,213.7,190.8,250z"/>
			<linearGradient id="SVGID_18_" gradientUnits="userSpaceOnUse" x1="203.203" y1="749.6868" x2="203.203" y2="124.668">
				<stop  offset="0" style="stop-color:#99D140"/>
				<stop  offset="0.4182" style="stop-color:#668A19"/>
			</linearGradient>
			<path fill="url(#SVGID_18_)" d="M169.3,744.3c0,0,26.5,11.8,61.6,0.6c0,0,19.5-485.5-10.8-619.6l-26.9-0.6
				C193.2,124.7,184.5,556.3,169.3,744.3z"/>
			
				<linearGradient id="SVGID_19_" gradientUnits="userSpaceOnUse" x1="467.2338" y1="860.044" x2="467.2338" y2="949.5549" gradientTransform="matrix(0.9981 -6.230000e-02 6.230000e-02 0.9981 -341.3231 -744.5728)">
				<stop  offset="0" style="stop-color:#804F1B"/>
				<stop  offset="0.4182" style="stop-color:#80A72A"/>
			</linearGradient>
			<path fill="url(#SVGID_19_)" d="M181.6,82.3c-15.1,26.2-23.1,69,8.6,93.7l4.6-42.2C194.9,133.7,175.2,105.7,181.6,82.3z"/>
			
				<linearGradient id="SVGID_20_" gradientUnits="userSpaceOnUse" x1="1354.6788" y1="914.8129" x2="1354.6788" y2="1000.1752" gradientTransform="matrix(-0.9981 -6.290000e-02 -6.290000e-02 0.9981 1644.8311 -743.7826)">
				<stop  offset="0" style="stop-color:#6C4317"/>
				<stop  offset="0.4182" style="stop-color:#6D8E24"/>
			</linearGradient>
			<path fill="url(#SVGID_20_)" d="M229.2,81.5c15.2,26.2,23,69-3.4,89.6l-4.6-42.3C221.2,128.9,235.7,105,229.2,81.5z"/>
			
				<linearGradient id="SVGID_21_" gradientUnits="userSpaceOnUse" x1="494.5878" y1="778.5176" x2="494.5878" y2="842.1564" gradientTransform="matrix(0.9981 -6.230000e-02 6.230000e-02 0.9981 -341.3231 -744.5728)">
				<stop  offset="0" style="stop-color:#6C4317"/>
				<stop  offset="0.4182" style="stop-color:#6D8E24"/>
			</linearGradient>
			<path fill="url(#SVGID_21_)" d="M204,66.8c-11.7-7.3-24.1-23.5-2.6-66.8C216.6,23.3,226.1,58.2,204,66.8z"/>
			
				<linearGradient id="SVGID_22_" gradientUnits="userSpaceOnUse" x1="477.5889" y1="803.8041" x2="477.5889" y2="871.8589" gradientTransform="matrix(0.9981 -6.230000e-02 6.230000e-02 0.9981 -341.3231 -744.5728)">
				<stop  offset="0" style="stop-color:#804F1B"/>
				<stop  offset="0.4182" style="stop-color:#80A72A"/>
			</linearGradient>
			<path fill="url(#SVGID_22_)" d="M191.4,97.5c-13.2-4-24.5-25.5,0.2-71.6c0,0,7.1,33.2,8,48.5C200.6,89.6,191.4,97.5,191.4,97.5z"
				/>
			
				<linearGradient id="SVGID_23_" gradientUnits="userSpaceOnUse" x1="1410.5455" y1="805.7725" x2="1410.5455" y2="873.8079" gradientTransform="matrix(-0.9981 6.230000e-02 6.230000e-02 0.9981 1576.0217 -864.3956)">
				<stop  offset="0" style="stop-color:#6C4317"/>
				<stop  offset="0.4182" style="stop-color:#6D8E24"/>
			</linearGradient>
			<path fill="url(#SVGID_23_)" d="M221.1,97.4c12.6-5.6,21.1-28.3-9.1-71c0,0-2.9,33.9-2,49.1C211,90.8,221.1,97.4,221.1,97.4z"/>
			
				<linearGradient id="SVGID_24_" gradientUnits="userSpaceOnUse" x1="492.3127" y1="806.0605" x2="492.3127" y2="876.6251" gradientTransform="matrix(0.9981 -6.230000e-02 6.230000e-02 0.9981 -341.3231 -744.5728)">
				<stop  offset="0" style="stop-color:#804F1B"/>
				<stop  offset="0.4182" style="stop-color:#80A72A"/>
			</linearGradient>
			<path fill="url(#SVGID_24_)" d="M203.3,101.6c-28.4-8.9-14.1-43.5-0.1-74.3C203.3,27.3,239.8,85.6,203.3,101.6z"/>
			
				<linearGradient id="SVGID_25_" gradientUnits="userSpaceOnUse" x1="439.6629" y1="785.2389" x2="439.6629" y2="855.1736" gradientTransform="matrix(0.9824 -0.1868 0.1868 0.9824 -395.3351 -616.1278)">
				<stop  offset="0" style="stop-color:#6C4317"/>
				<stop  offset="0.4182" style="stop-color:#6D8E24"/>
			</linearGradient>
			<path fill="url(#SVGID_25_)" d="M195.7,143.8c-14.2-7.2-25.1-30.8-12.8-72.3C182.9,71.4,219.4,106.6,195.7,143.8z"/>
			
				<linearGradient id="SVGID_26_" gradientUnits="userSpaceOnUse" x1="1416.3696" y1="848.4688" x2="1416.3696" y2="918.4216" gradientTransform="matrix(-0.9981 6.230000e-02 6.230000e-02 0.9981 1576.0217 -864.3956)">
				<stop  offset="0" style="stop-color:#804F1B"/>
				<stop  offset="0.4182" style="stop-color:#80A72A"/>
			</linearGradient>
			<path fill="url(#SVGID_26_)" d="M220.6,142.2c12-10.5,16.7-36.1-5.5-73.3C215.1,68.9,188.5,112,220.6,142.2z"/>
			
				<linearGradient id="SVGID_27_" gradientUnits="userSpaceOnUse" x1="493.1183" y1="852.7921" x2="493.1183" y2="923.3328" gradientTransform="matrix(0.9981 -6.230000e-02 6.230000e-02 0.9981 -341.3231 -744.5728)">
				<stop  offset="0" style="stop-color:#804F1B"/>
				<stop  offset="0.4182" style="stop-color:#80A72A"/>
			</linearGradient>
			<path fill="url(#SVGID_27_)" d="M208.8,148c-28.4-8.9-19.5-43.2-5.5-73.9C203.3,74.1,245.3,132,208.8,148z"/>
			
				<linearGradient id="SVGID_28_" gradientUnits="userSpaceOnUse" x1="502.9188" y1="971.3055" x2="502.9188" y2="1046.437" gradientTransform="matrix(0.9981 -6.230000e-02 6.230000e-02 0.9981 -341.3231 -744.5728)">
				<stop  offset="0" style="stop-color:#804F1B"/>
				<stop  offset="0.4182" style="stop-color:#80A72A"/>
			</linearGradient>
			<path fill="url(#SVGID_28_)" d="M207,257.1l27.2,12.8c6.6-10.9,17.1-40.6-8.7-78.5C225.5,191.4,214.1,242.1,207,257.1z"/>
			
				<linearGradient id="SVGID_29_" gradientUnits="userSpaceOnUse" x1="469.8444" y1="1033.2059" x2="469.8444" y2="1104.3098" gradientTransform="matrix(0.9981 -6.230000e-02 6.230000e-02 0.9981 -341.3231 -744.5728)">
				<stop  offset="0" style="stop-color:#804F1B"/>
				<stop  offset="0.4182" style="stop-color:#80A72A"/>
			</linearGradient>
			<path fill="url(#SVGID_29_)" d="M212.4,318.1c-5.6-11.7-21.7-62.4-21.7-62.4s-10.8,46.7-11.5,61.2c-0.7,14.6,6.6,14.9,13.7,12.9
				C200.1,327.7,212.4,318.1,212.4,318.1z"/>
			
				<linearGradient id="SVGID_30_" gradientUnits="userSpaceOnUse" x1="512.0629" y1="1082.6676" x2="512.0629" y2="1166.9716" gradientTransform="matrix(0.9981 -6.230000e-02 6.230000e-02 0.9981 -341.3231 -744.5728)">
				<stop  offset="0" style="stop-color:#804F1B"/>
				<stop  offset="0.4182" style="stop-color:#80A72A"/>
			</linearGradient>
			<path fill="url(#SVGID_30_)" d="M228.5,359c0,0,9.3-32.1,6.1-56.9c10.7,15.5,19.1,60.2,18.8,67.4c-0.4,7.3-17.4,21.2-17.4,21.2
				L228.5,359z"/>
			
				<linearGradient id="SVGID_31_" gradientUnits="userSpaceOnUse" x1="481.0429" y1="1163.6615" x2="481.0429" y2="1234.2252" gradientTransform="matrix(0.9981 -6.230000e-02 6.230000e-02 0.9981 -341.3231 -744.5728)">
				<stop  offset="0" style="stop-color:#804F1B"/>
				<stop  offset="0.4182" style="stop-color:#80A72A"/>
			</linearGradient>
			<path fill="url(#SVGID_31_)" d="M193.2,449.2c-1.4-8.8,17.9-36.6,17.8-64.1c0,0,21.7,37.4,25.1,53.3c3.4,15.9-3.6,19.6-18.9,20.6
				C201.9,460,193.2,449.2,193.2,449.2z"/>
			
				<linearGradient id="SVGID_32_" gradientUnits="userSpaceOnUse" x1="484.5018" y1="909.1708" x2="484.5018" y2="980.5057" gradientTransform="matrix(0.9981 -6.230000e-02 6.230000e-02 0.9981 -341.3231 -744.5728)">
				<stop  offset="0" style="stop-color:#804F1B"/>
				<stop  offset="0.4182" style="stop-color:#80A72A"/>
			</linearGradient>
			<path fill="url(#SVGID_32_)" d="M201.4,205.8c0,0-10.6-1.8-13.5-8.8c-2.9-7.1-6.2-32.1,7.2-65.8c0,0,20.2,39.9,23.8,57.4
				C220.9,194.9,201.4,205.8,201.4,205.8z"/>
		</g>
		<g>
			
				<linearGradient id="SVGID_33_" gradientUnits="userSpaceOnUse" x1="408.8413" y1="1219.2092" x2="408.8413" y2="1284.8657" gradientTransform="matrix(0.9451 0.3268 -0.3268 0.9451 148.3955 -832.2039)">
				<stop  offset="0" style="stop-color:#6C4317"/>
				<stop  offset="0.4182" style="stop-color:#6D8E24"/>
			</linearGradient>
			<path fill="url(#SVGID_33_)" d="M104.1,500.3c6,6.5,12,13.1,18,19.6c8.6-6.7,25.8-27.5,15.5-67.6
				C137.7,452.4,114.4,490.5,104.1,500.3z"/>
			
				<linearGradient id="SVGID_34_" gradientUnits="userSpaceOnUse" x1="373.1757" y1="895.9413" x2="373.1757" y2="977.6147" gradientTransform="matrix(0.9976 6.970000e-02 -6.970000e-02 0.9976 -187.4905 -804.2182)">
				<stop  offset="0" style="stop-color:#6C4317"/>
				<stop  offset="0.4182" style="stop-color:#6D8E24"/>
			</linearGradient>
			<path fill="url(#SVGID_34_)" d="M117.8,113.2c-13.2,21.2-15.7,61.6,10.4,86.7c1.9-12.1-1.6-28.2,0.1-40.3
				C128.4,159.6,112.2,132.9,117.8,113.2z"/>
			
				<linearGradient id="SVGID_35_" gradientUnits="userSpaceOnUse" x1="415.8789" y1="984.3776" x2="415.8789" y2="1055.6848" gradientTransform="matrix(0.9726 -0.2325 0.2325 0.9726 -521.5142 -667.6897)">
				<stop  offset="0" style="stop-color:#6C4317"/>
				<stop  offset="0.4182" style="stop-color:#6D8E24"/>
			</linearGradient>
			<path fill="url(#SVGID_35_)" d="M127.5,264.4c0.7-7.9,8.3-21,8.9-28.8c0,0-29.9-13.5-34.2-42.1
				C102.2,193.5,97.9,237.5,127.5,264.4z"/>
			
				<linearGradient id="SVGID_36_" gradientUnits="userSpaceOnUse" x1="100.7547" y1="745.765" x2="100.7547" y2="161.3407" gradientTransform="matrix(0.9913 0.1317 -0.1317 0.9913 53.0328 -21.0756)">
				<stop  offset="0" style="stop-color:#99D140"/>
				<stop  offset="0.4182" style="stop-color:#668A19"/>
			</linearGradient>
			<path fill="url(#SVGID_36_)" d="M10.9,720.9c0,0,19.9,12.9,52.9,7.6c-0.7,0.1,47.5-140.8,68.6-259.4
				c23.1-118.2,30.6-253.8,18-314c-7.7-1.2-15.5-2.4-23.2-3.6c-0.8-0.2-2.6,94.3-21.7,207.3C88,472,41.9,643.4,10.9,720.9z"/>
			
				<linearGradient id="SVGID_37_" gradientUnits="userSpaceOnUse" x1="1453.7208" y1="963.8501" x2="1453.7208" y2="1037.474" gradientTransform="matrix(-0.9811 -0.1938 -0.1938 0.9811 1781.6122 -542.0806)">
				<stop  offset="0" style="stop-color:#6C4317"/>
				<stop  offset="0.4182" style="stop-color:#6D8E24"/>
			</linearGradient>
			<path fill="url(#SVGID_37_)" d="M158.9,118c12.9,24.7,18.6,62.9-5.1,77.8c-0.8-12.5-1.6-24.9-2.6-37.4
				C151.2,158.5,164.3,139.2,158.9,118z"/>
			
				<linearGradient id="SVGID_38_" gradientUnits="userSpaceOnUse" x1="385.3828" y1="834.7264" x2="385.3828" y2="883.8686" gradientTransform="matrix(0.9976 6.970000e-02 -6.970000e-02 0.9976 -187.4905 -804.2182)">
				<stop  offset="0" style="stop-color:#6C4317"/>
				<stop  offset="0.4182" style="stop-color:#6D8E24"/>
			</linearGradient>
			<path fill="url(#SVGID_38_)" d="M137.1,105.7c-9-6.9-18.2-20.6-2.5-51.9C146.7,73.4,154,101.3,137.1,105.7z"/>
			
				<linearGradient id="SVGID_39_" gradientUnits="userSpaceOnUse" x1="391.9918" y1="856.9825" x2="391.9918" y2="909.5634" gradientTransform="matrix(0.9999 -1.420000e-02 1.420000e-02 0.9999 -280.982 -777.0074)">
				<stop  offset="0" style="stop-color:#6C4317"/>
				<stop  offset="0.4182" style="stop-color:#6D8E24"/>
			</linearGradient>
			<path fill="url(#SVGID_39_)" d="M127.3,128.2c-10.4-3.6-20-20.6-4.4-55.2c0,0,7.9,25.8,9.5,37.6
				C134,122.5,127.3,128.2,127.3,128.2z"/>
			
				<linearGradient id="SVGID_40_" gradientUnits="userSpaceOnUse" x1="1541.0223" y1="853.301" x2="1541.0223" y2="910.5057" gradientTransform="matrix(-0.984 -0.1784 -0.1784 0.984 1826.9397 -486.62)">
				<stop  offset="0" style="stop-color:#6C4317"/>
				<stop  offset="0.4182" style="stop-color:#6D8E24"/>
			</linearGradient>
			<path fill="url(#SVGID_40_)" d="M148.5,135.9c9.9-2,20.6-22.4,1.3-60.8c0,0-4.8,25.5-5.5,37.4
				C143.6,124.4,148.5,135.9,148.5,135.9z"/>
			
				<linearGradient id="SVGID_41_" gradientUnits="userSpaceOnUse" x1="387.1779" y1="855.9893" x2="387.1779" y2="910.5016" gradientTransform="matrix(0.9976 6.970000e-02 -6.970000e-02 0.9976 -187.4905 -804.2182)">
				<stop  offset="0" style="stop-color:#804F1B"/>
				<stop  offset="0.4182" style="stop-color:#80A72A"/>
			</linearGradient>
			<path fill="url(#SVGID_41_)" d="M136.3,132.5c-21.5-9.7-10.2-35,0.1-57.4C136.6,75.1,164.6,123.9,136.3,132.5z"/>
			
				<linearGradient id="SVGID_42_" gradientUnits="userSpaceOnUse" x1="335.9763" y1="808.779" x2="335.9763" y2="870.7133" gradientTransform="matrix(0.9985 -5.580000e-02 5.580000e-02 0.9985 -257.2741 -683.6149)">
				<stop  offset="0" style="stop-color:#804F1B"/>
				<stop  offset="0.4182" style="stop-color:#80A72A"/>
			</linearGradient>
			<path fill="url(#SVGID_42_)" d="M128.8,168.5c-12.1-7.9-20.6-29.8-9.8-64.6C119.1,103.9,150.4,138.8,128.8,168.5z"/>
			
				<linearGradient id="SVGID_43_" gradientUnits="userSpaceOnUse" x1="377.1156" y1="886.9504" x2="377.1156" y2="948.5833" gradientTransform="matrix(0.9869 0.1616 -0.1616 0.9869 -81.1213 -825.3199)">
				<stop  offset="0" style="stop-color:#804F1B"/>
				<stop  offset="0.4182" style="stop-color:#80A72A"/>
			</linearGradient>
			<path fill="url(#SVGID_43_)" d="M140,173.7c-23-13.2-11.8-41.2,2.7-65.2C142.8,108.6,172.9,167,140,173.7z"/>
			
				<linearGradient id="SVGID_44_" gradientUnits="userSpaceOnUse" x1="408.4022" y1="1096.1888" x2="408.4022" y2="1161.8389" gradientTransform="matrix(0.9976 6.970000e-02 -6.970000e-02 0.9976 -187.4905 -804.2182)">
				<stop  offset="0" style="stop-color:#804F1B"/>
				<stop  offset="0.4182" style="stop-color:#80A72A"/>
			</linearGradient>
			<path fill="url(#SVGID_44_)" d="M124.5,371.2c7.5,4.8,15,9.5,22.5,14.3c6.5-8.7,17.8-33.3-2.6-69.3
				C144.5,316.2,131.9,359.1,124.5,371.2z"/>
			
				<linearGradient id="SVGID_45_" gradientUnits="userSpaceOnUse" x1="381.8286" y1="1060.8601" x2="381.8286" y2="1122.9545" gradientTransform="matrix(0.9976 6.970000e-02 -6.970000e-02 0.9976 -187.4905 -804.2182)">
				<stop  offset="0" style="stop-color:#804F1B"/>
				<stop  offset="0.4182" style="stop-color:#80A72A"/>
			</linearGradient>
			<path fill="url(#SVGID_45_)" d="M130.1,335.6c-3.5-10.8-13.4-56.6-13.5-56.6c0.1,0-12.9,39.3-15,51.8c-2,12.6,4.2,13.7,10.6,12.7
				C118.6,342.5,130.1,335.6,130.1,335.6z"/>
			
				<linearGradient id="SVGID_46_" gradientUnits="userSpaceOnUse" x1="422.4396" y1="1009.1624" x2="422.4396" y2="1082.7058" gradientTransform="matrix(0.9976 6.970000e-02 -6.970000e-02 0.9976 -187.4905 -804.2182)">
				<stop  offset="0" style="stop-color:#804F1B"/>
				<stop  offset="0.4182" style="stop-color:#80A72A"/>
			</linearGradient>
			<path fill="url(#SVGID_46_)" d="M149.8,278.5c0,0,11.5-26.7,10.9-48.6c8,14.7,10.6,54.3,9.4,60.5c-1.1,6.3-17.5,16.3-17.5,16.3
				C151.7,297.3,150.8,287.9,149.8,278.5z"/>
			
				<linearGradient id="SVGID_47_" gradientUnits="userSpaceOnUse" x1="335.0603" y1="1169.0905" x2="335.0603" y2="1230.5283" gradientTransform="matrix(-0.9812 -0.1932 -0.1932 0.9812 668.8782 -690.4841)">
				<stop  offset="0" style="stop-color:#804F1B"/>
				<stop  offset="0.4182" style="stop-color:#80A72A"/>
			</linearGradient>
			<path fill="url(#SVGID_47_)" d="M122.8,447.7c1.9-7.5-12.1-33.8-8.9-57.5c-0.1,0-22.8,29.9-27.1,43.3c-4.4,13.4,1.4,17.4,14.5,20
				C114.3,456.1,122.8,447.7,122.8,447.7z"/>
			
				<linearGradient id="SVGID_48_" gradientUnits="userSpaceOnUse" x1="306.3107" y1="1003.642" x2="306.3107" y2="1065.0162" gradientTransform="matrix(-0.9982 6.070000e-02 6.070000e-02 0.9982 372.1237 -812.2213)">
				<stop  offset="0" style="stop-color:#804F1B"/>
				<stop  offset="0.4182" style="stop-color:#80A72A"/>
			</linearGradient>
			<path fill="url(#SVGID_48_)" d="M145,260.6c-0.3-7.7-16.3-30.2-19.2-53.9c-0.1,0-10,34.1-10.1,48.1c-0.2,14,4.9,16.6,14.9,16.2
				C140.7,270.6,145,260.6,145,260.6z"/>
			
				<linearGradient id="SVGID_49_" gradientUnits="userSpaceOnUse" x1="293.7434" y1="939.9072" x2="293.7434" y2="1002.2496" gradientTransform="matrix(-0.9979 6.560000e-02 6.560000e-02 0.9979 373.2947 -802.9768)">
				<stop  offset="0" style="stop-color:#804F1B"/>
				<stop  offset="0.4182" style="stop-color:#80A72A"/>
			</linearGradient>
			<path fill="url(#SVGID_49_)" d="M146.4,218c0,0,9-2.7,11.2-9.2c2.1-6.5,3.8-28.7-8.5-56.6c-0.1,0-16.4,37.1-18.6,52.7
				C129.1,210.6,146.4,218,146.4,218z"/>
		</g>
	</g>
</g>
</svg>
