<?xml version="1.0" encoding="utf-8"?>
<!-- Generator: Adobe Illustrator 23.0.5, SVG Export Plug-In . SVG Version: 6.00 Build 0)  -->
<svg version="1.1" id="Layer_1" xmlns="http://www.w3.org/2000/svg" xmlns:xlink="http://www.w3.org/1999/xlink" x="0px" y="0px"
	 viewBox="0 0 175.6 319.7" style="enable-background:new 0 0 175.6 319.7;" xml:space="preserve">
<style type="text/css">
	.st0{fill:#A81F38;}
	.st1{fill:#910E23;}
	.st2{fill:#C84B63;}
	.st3{fill:#71970D;}
	.st4{fill:#6B001D;}
	.st5{fill:#8FBC19;}
</style>
<g>
	<path class="st0" d="M137.4,214.8c0.6,27.2-26.6,55.6-57.5,53.8c-30.9-1.8-54.6-29.4-54.9-60.3c-0.2-19.6,22.2-38,57.7-36
		C116.4,174.3,136.8,184,137.4,214.8L137.4,214.8z"/>
	<path class="st1" d="M76.5,279.5c-1.4-1.4-14.2-13.7-19.6-16.3c-5.4-2.6-12.3-6.4-17.1-11.8c-4.8-5.4-11.7-15.5-13.1-24.8
		c-0.4-2.5-1.2-5.1-1.4-7.3c-0.6-6.1,0.1-15.7,0.1-15.7s4.3,20,25.1,29.7c20.6,9.6,43.7,4.6,50.8,2.6c18-5.3,25.5-16.2,27.2-28.9
		c1.2-9.1,2-16.7,2.7-15.7c6.3,9.4,7.5,19.9,6.3,28.9c-1.2,8.7-4.3,16.4-7.4,21.8c-2.3,4.1-4.7,7-5.4,8.2
		c-3.8,5.7-10,12.8-20.9,18.8c-0.9,0.7-2.5,2-4.1,3.2c-1.7,1.9-7.9,9.4-10,15.6c-1.9,5.6-6.7,14.3-14.5,21.8
		c-4.7,4.6-12.2,9.7-17,10c-4.7,0.2-5-1.2-2.3-1.7c3.2-0.6,6.7-1.9,10.5-5.3c6.9-6.3,10.9-12.5,11.9-18
		C79.4,289.1,79.4,282.4,76.5,279.5L76.5,279.5z"/>
	<path class="st2" d="M59,194.6c-4.1-2-17-1.3-16.4,6.6c0.5,7.4,3.7,11.6,12.9,15c11.1,4.1,15.4,4.9,25.3,4.2
		c12.3-0.9,18.8-3.3,20.8-8.6c5.5-14.5-3.1-12.3-17.7-11.7C73.9,200.5,69.1,199.5,59,194.6L59,194.6z"/>
	<path class="st1" d="M106.6,178.6c0.4,1.4-15.8,3.4-25.2,2.8c-9.4-0.6-20.8-4.4-20.4-5.8c0.4-1.4,15.3-2.9,22.9-2.3
		C91.5,173.7,105.3,174,106.6,178.6L106.6,178.6z"/>
	<path class="st3" d="M89.1,137.4c0,0,5.6-0.1,10.7,0.6c5.9,0.7,7.2-4.7,11.5-4.5c2.3,0.1,9,2.8,14,2.2c4.4-0.6,7.3-4.4,8.7-5.9
		c3-3.3-0.8-6,3.2-12.2c3.2-5,6.8-5.8,5.7-9.9c-1.1-4.1-4.9-3-3.1-10.4c1.5-6.1,5.8-3.1,5.3-12.1c-0.3-6-6.1-3.9-6.8-10.1
		c-0.5-3.8,3.6-6.8,2.1-10.6c-1.5-3.8-5-8.1-5.2-11.7c-0.2-3.5,5.5-7.5,1.8-11.8c-3.7-4.3-6.8-0.3-10.2-6.1
		c-1.1-1.8-5.4-10.2-16-12.6c-5.4-1.2-10.9,2.7-13.2,3.1c-2.2,0.5-4.3-1.9-7.4-0.2c-3.1,1.7-1.8,4.8-3.5,6.1
		c-1.7,1.4-10.8-0.6-13.3,3c-2.5,3.6,1.8,8-5.2,13.9c-4.6,3.9,1.2,7.3-2.3,13c-1.9,3.1-7.8-1.3-8.4,7.9c-0.2,2.5,3,7.2,2.7,9.1
		c-0.3,1.8-8,3.6-8.6,8.7c-0.5,5.1,3.9,7.8,3.5,10.4c-0.4,2.6-2.5,6.6-1.1,9.5c1.4,2.9,7,6.1,7.9,8.7c0.9,2.6-6.6,5.6,5.1,13.1
		c3.6,2.3,10.7,1.3,13.5,4.6C82,135,84.8,138.2,89.1,137.4L89.1,137.4z"/>
	<path class="st0" d="M94.6,115.6c0,0,6.4-7.2,13.4-6.6c9.5,0.7,22.8,1.8,25.4-1.2c-0.3,3-12.7,3.3-22.4,3.6
		c-10.3,0.3-15.9,6.6-17.1,7.4C93.1,116.5,94.6,115.6,94.6,115.6L94.6,115.6z"/>
	<path class="st0" d="M99,80.2c0,0,20.2-11.3,27-23.6c-2.9,12.4-25.5,24.9-27.9,27C97.7,81.2,99,80.2,99,80.2L99,80.2z"/>
	<path class="st0" d="M91.6,111.1c0,0-3.3-6-9.2-9c-7.8-3.9-19.1-5.3-21.4-8.8c2,4.2,14,7.2,20.4,10.9c5.3,3.1,8.6,9.1,10.6,9.5
		C92.4,110.6,91.6,111.1,91.6,111.1L91.6,111.1z"/>
	<path class="st0" d="M96.1,101.9c0,0,5.5-8.7,10.6-8.7c6.9,0,21.7-10.2,23.6-13.4c-0.2,3-15.3,14.6-22.4,15.6
		c-7.6,1.1-11.5,8.7-12.4,9.6C95,102.9,96.1,101.9,96.1,101.9L96.1,101.9z"/>
	<path class="st0" d="M96.4,93.2c0,0-1.9-7.9-7.1-13.5c-6.8-7.3-19.6-11.5-20.7-16.4c0.4,5.6,13.3,11.8,18.6,18.4
		c4.4,5.5,6.4,13.4,8.4,14.5C97.4,92.9,96.4,93.2,96.4,93.2L96.4,93.2z"/>
	<path class="st0" d="M99.2,66.6c0,0-13.5-11.5-15.9-19.4c3.6,14.3,15.7,21.6,15.7,21.6C100.1,65.8,99.2,66.6,99.2,66.6L99.2,66.6z"
		/>
	<path class="st4" d="M88.6,176.4c1.9-0.8,1.1-8.5,1.7-13c0.6-4.5,2-28,2.4-32.4c0.5-4.4,4.1-32.8,4.1-32.8l2.7-25.3
		c0,0,2.9-14.3,3.9-20.3c0.9-5.1,6.2-14.1,5.9-21c-0.2,4.7-6.4,17.8-7.3,22c-0.8,4.2-2.9,12.4-3.6,15.9C98,73,96,86.7,95.1,91.4
		c-0.9,4.7-2.7,16.2-3.7,21.8c-1,5.7-5.2,25.6-5.9,30.8c-0.6,5.2-2.9,15.9-3.6,21.5c-0.3,2.7-3,6-2.9,7.8
		C79.1,175.2,87.7,176.7,88.6,176.4L88.6,176.4z"/>
	<path class="st3" d="M104.5,140.3c0,0,5.5,1.3,10.2,3.2c5.5,2.2,8.1-2.8,12.3-1.5c2.2,0.7,8,5,13,5.6c4.4,0.6,8.1-2.4,9.9-3.6
		c3.8-2.4,0.7-6,6.2-11c4.4-4,8.1-3.9,8-8.1c-0.1-4.2-4-4.1-0.4-10.8c3-5.6,6.4-1.6,8.2-10.4c1.2-5.9-4.9-5.3-4.1-11.5
		c0.5-3.8,5.1-5.7,4.6-9.8c-0.5-4.1-2.9-9.1-2.1-12.6s7.2-5.9,4.7-11c-2.5-5.1-6.5-2-8.4-8.4c-0.6-2.1-2.7-11.2-12.3-16.2
		c-4.9-2.5-11.2-0.1-13.5-0.2c-2.3-0.1-3.7-3-7.2-2.1c-3.5,0.9-2.9,4.2-4.9,5.1c-2,0.9-10.4-3.3-13.7-0.4c-3.3,2.8-0.2,8.2-8.5,12.1
		c-5.4,2.6-0.7,7.4-5.4,12c-2.6,2.5-7.2-3.2-10.1,5.6c-0.8,2.4,1.1,7.8,0.3,9.4c-0.7,1.7-8.7,1.5-10.5,6.3c-1.8,4.8,1.8,8.6,0.8,11
		c-1,2.4-4.1,5.7-3.4,8.9c0.6,3.2,5.3,7.7,5.5,10.4c0.2,2.8-7.8,3.8,1.6,14c2.9,3.2,10,3.9,11.9,7.9
		C98.3,136.2,100.2,139.9,104.5,140.3L104.5,140.3z"/>
	<path class="st0" d="M115.3,120.5c0,0,8-5.4,14.6-3.1c9,3.1,21.6,7.4,24.9,5.1c-1,2.8-13.2,0-22.6-2.1c-10-2.2-17,2.4-18.4,2.9
		C113.7,120.9,115.3,120.5,115.3,120.5L115.3,120.5z"/>
	<path class="st0" d="M128.4,87.3c0,0,22.4-6,32-16.2c-5.9,11.3-30.9,17.8-33.7,19.2C126.9,88,128.4,87.3,128.4,87.3L128.4,87.3z"/>
	<path class="st0" d="M113.6,115.4c0,0-1.7-6.6-6.7-11c-6.6-5.7-17.1-9.9-18.5-13.9c0.9,4.6,11.8,10.4,17,15.7
		c4.4,4.4,6.1,11,7.9,11.8C114.4,115.1,113.6,115.4,113.6,115.4L113.6,115.4z"/>
	<path class="st0" d="M120.2,107.6c0,0,7.5-7,12.4-5.7c6.7,1.7,23.6-4.5,26.2-7.1c-1,2.8-18.5,10.3-25.6,9.5
		c-7.6-0.8-13.3,5.6-14.4,6.2C118.9,108.2,120.2,107.6,120.2,107.6L120.2,107.6z"/>
	<path class="st0" d="M122.6,99.2c0,0,0.2-8.1-3.5-14.8c-4.8-8.8-16.2-16-15.9-21c-1,5.5,10,14.8,13.5,22.5
		c2.9,6.4,2.8,14.5,4.5,16.2C123.7,99.1,122.6,99.2,122.6,99.2L122.6,99.2z"/>
	<path class="st0" d="M131.9,74.2c0,0-10.2-14.5-10.6-22.8c-0.1,14.7,9.8,24.8,9.8,24.8C133,73.7,131.9,74.2,131.9,74.2L131.9,74.2z
		"/>
	<path class="st0" d="M94.5,177.9c2-0.3,3.2-8,4.9-12.2c1.7-4.2,8.9-26.6,10.4-30.8c1.6-4.2,12.2-30.8,12.2-30.8l8.9-23.8
		c0,0,6.4-13.1,8.9-18.7c2.1-4.7,9.5-12.1,11-18.8c-1.3,4.5-10.6,15.6-12.5,19.5c-1.8,3.9-5.9,11.3-7.4,14.6s-6.9,16.1-9,20.5
		c-2.1,4.4-6.6,15-9,20.2c-2.4,5.2-11.4,23.5-13.3,28.3c-1.9,4.8-6.8,14.6-8.8,19.9c-1,2.5-5.3,7.9-5.7,9.7
		C84.6,177.2,93.5,178,94.5,177.9L94.5,177.9z"/>
	<path class="st3" d="M60.7,140.6c0,0,5-2.6,9.8-4.3c5.6-2,4.2-7.5,8.2-9.3c2.1-1,9.3-1.5,13.5-4.4c3.7-2.5,4.5-7.2,5.1-9.2
		c1.2-4.3-3.4-5-2.7-12.3c0.6-5.9,3.5-8.3,0.6-11.4c-2.8-3.1-5.7-0.4-7.5-7.9c-1.5-6.1,3.7-5.4-0.7-13.2c-3-5.2-7.2-0.7-10.7-5.9
		c-2.1-3.2,0.1-7.7-3-10.4c-3.1-2.7-8.2-5-9.9-8c-1.7-3.1,1.5-9.2-3.7-11.4c-5.3-2.2-6.2,2.8-11.9-0.8c-1.8-1.1-9.4-6.6-19.9-4
		c-5.4,1.4-8.5,7.3-10.3,8.8c-1.8,1.4-4.7,0.2-6.7,3.2c-2,3,0.6,5-0.3,7c-0.9,2-9.9,4.4-10.5,8.7c-0.6,4.3,5.2,6.3,1.6,14.7
		c-2.3,5.5,4.4,6,3.9,12.6C5.2,86.7-2,85.5,1.7,94c1,2.3,5.9,5.1,6.5,6.9c0.6,1.7-5.5,6.9-3.7,11.6c1.8,4.7,7,5.2,7.8,7.7
		c0.8,2.5,0.7,7,3.3,8.9c2.6,2,9,2.3,11,4.2c2,1.9-3.4,8,10.5,9.4c4.3,0.4,10.1-3.7,14.2-2C53.4,141.6,57.3,143.2,60.7,140.6
		L60.7,140.6z"/>
	<path class="st0" d="M55.8,118.6c0,0,2.5-9.3,8.9-12c8.8-3.6,21.1-8.7,22.1-12.6c1.1,2.8-9.9,8.7-18.3,13.3c-9,5-11.2,13-11.9,14.4
		C54.8,120,55.8,118.6,55.8,118.6L55.8,118.6z"/>
	<path class="st0" d="M43.7,85.1c0,0,12.9-19.3,13.3-33.3c3.1,12.4-11.4,33.8-12.6,36.7C43,86.6,43.7,85.1,43.7,85.1L43.7,85.1z"/>
	<path class="st0" d="M51.1,115.9c0,0-5.6-3.9-12.3-3.8c-8.7,0.1-19.4,3.9-23.1,1.8c3.7,2.8,15.8,0,23.1,0.5
		c6.2,0.4,11.8,4.2,13.8,3.6C51.5,115.2,51.1,115.9,51.1,115.9L51.1,115.9z"/>
	<path class="st0" d="M50.9,105.7c0,0,1-10.2,5.5-12.5c6.2-3.1,14.7-18.9,15-22.7c1.2,2.8-7.1,19.9-12.9,24.1
		c-6.2,4.4-6.3,12.9-6.7,14.2C50.3,107.1,50.9,105.7,50.9,105.7L50.9,105.7z"/>
	<path class="st0" d="M47.2,97.8c0,0-5.3-6.2-12.4-8.8c-9.4-3.4-22.7-1.4-25.8-5.2c2.9,4.8,17.2,4.5,24.9,8c6.4,2.9,11.7,9,14.1,9.2
		C48,97.1,47.2,97.8,47.2,97.8L47.2,97.8z"/>
	<path class="st0" d="M37.6,72.8c0,0-17.2-4.1-23-10.1c9.7,11.1,23.8,12.1,23.8,12.1C38.1,71.8,37.6,72.8,37.6,72.8L37.6,72.8z"/>
	<path class="st1" d="M78,175.5c1.3-1.6-2.9-8.1-4.4-12.4c-1.5-4.3-10.9-25.8-12.5-30c-1.6-4.2-11.2-31.1-11.2-31.1l-9.1-23.8
		c0,0-3.9-14-5.7-19.9c-1.5-4.9-0.9-15.4-4.2-21.4c2,4.2,2.3,18.7,3.5,22.9c1.2,4.1,3,12.3,4.1,15.8c1,3.5,5.4,16.6,6.8,21.3
		c1.4,4.6,5,15.6,6.6,21.1c1.6,5.5,6.9,25.2,8.7,30.1c1.8,4.9,4.6,15.5,6.5,20.8c0.9,2.5,0,6.8,0.9,8.3
		C69,178.8,77.4,176.2,78,175.5L78,175.5z"/>
	<path class="st4" d="M79.4,277.8c-0.2-0.2,6.4-2.3,7.4-2.9c5.3-3.2,7.4-8.3,11.1-13.4c4.4-6.2,14.5-7,18.4-11.3
		C127.5,237.6,133,236,133,236s-2.1,5.2-6.4,11.8c-2.6,4-6.3,8.6-11,12.9c-4.2,3.9-7,4.7-17.5,13.8c-4.5,3.9-6.8,12-12.2,21.3
		c-11,18.9-26.2,23.8-26.2,23.8s9.3-5.2,17.2-14.4c4.9-5.8,9.7-14.2,11.7-22.1c0.5-1.9-0.6-2.2-2.3-2.9
		C84.1,279.2,82.5,280.5,79.4,277.8L79.4,277.8z"/>
	<path class="st5" d="M78.8,133.1c0,0,6.3-1.1,12.1-1.3c6.7-0.2,7.2-6.6,12.1-7.2c2.6-0.3,10.6,1.5,16.1-0.1
		c4.9-1.4,7.4-6.2,8.7-8.2c2.8-4.2-2-6.6,1.4-14.3c2.7-6.2,6.6-7.7,4.6-12.1c-2-4.4-6-2.4-5.4-11.1c0.5-7.1,5.9-4.5,3.8-14.5
		c-1.4-6.6-7.6-3.3-9.5-10.1c-1.2-4.2,2.8-8.3,0.4-12.3c-2.4-4-7.1-8.2-7.9-12.1c-0.8-3.9,4.9-9.5-0.1-13.6s-7.7,0.9-12.6-5
		C100.9,9.4,94.6,0.8,82.3,0C76-0.4,70.5,5,68.1,5.9c-2.4,0.9-5.2-1.4-8.4,1.1c-3.2,2.5-1.1,5.7-2.8,7.5c-1.7,1.9-12.3,1.3-14.4,5.8
		c-2.2,4.5,3.5,8.6-3.3,16.5c-4.5,5.2,2.7,8-0.2,15c-1.6,3.8-9,0-8,10.4c0.3,2.8,4.6,7.6,4.7,9.7c0,2.1-8.3,5.5-8,11.3
		c0.3,5.8,5.8,8.1,5.8,11.1c0,3-1.6,7.8,0.5,10.8c2.1,3,9,5.6,10.5,8.4c1.5,2.8-6.4,7.5,8.1,13.8c4.5,2,12.2-0.5,16,2.8
		C70.4,131.7,74.1,134.7,78.8,133.1L78.8,133.1z"/>
	<path class="st0" d="M81.1,107.6c0,0,5.9-9.2,13.8-9.9c10.7-0.9,25.9-2.1,28.3-6c0.2,3.4-13.7,6-24.4,8.1
		c-11.5,2.2-16.6,10.2-17.9,11.4C79.5,108.8,81.1,107.6,81.1,107.6L81.1,107.6z"/>
	<path class="st0" d="M79.6,67.1c0,0,20.6-16.4,26-31.4c-1,14.5-24,32.6-26.3,35.4C78.3,68.5,79.6,67.1,79.6,67.1L79.6,67.1z"/>
	<path class="st0" d="M76.9,103.1c0,0-4.8-6.2-12-8.4c-9.5-3-22.3-2.5-25.6-6c3,4.4,17.1,5.5,24.8,8.6c6.5,2.6,11.3,8.6,13.6,8.7
		C77.6,102.4,76.9,103.1,76.9,103.1L76.9,103.1z"/>
	<path class="st0" d="M80.2,92c0,0,4.6-10.7,10.3-11.6c7.8-1.3,22.5-15.4,24.1-19.3c0.3,3.4-14.6,19.1-22.3,21.6
		c-8.3,2.6-11.3,11.8-12.1,13C79.1,93.2,80.2,92,80.2,92L80.2,92z"/>
	<path class="st0" d="M78.9,82.1c0,0-3.5-8.5-10.4-13.8c-9-6.9-24.1-9.3-26.1-14.6c1.4,6.2,17.1,10.8,24.2,17.3
		c6,5.4,9.6,13.8,12,14.8C80,81.6,78.9,82.1,78.9,82.1L78.9,82.1z"/>
	<path class="st0" d="M77.3,51.8c0,0-17.2-10.5-21.4-18.9c6.6,15.4,21.5,21.3,21.5,21.3C78.2,50.8,77.3,51.8,77.3,51.8L77.3,51.8z"
		/>
	<path class="st0" d="M85.4,176.8c2-1.3-0.3-9.8-0.5-14.9c-0.1-5.2-2.9-31.8-3.2-36.8c-0.3-5.1-1.3-37.6-1.3-37.6l-1.6-28.9
		c0,0,0.7-16.5,0.7-23.5c0-5.8,4.4-17,2.8-24.6c0.7,5.3-4,21.1-4.2,25.9c-0.2,4.9-1,14.4-1.1,18.5c-0.1,4.1,0.1,19.9,0,25.4
		c-0.1,5.5,0,18.6-0.2,25.2c-0.1,6.5-1.2,29.7-1,35.6c0.2,5.9-0.4,18.3-0.1,24.7c0.1,3.1-2.3,7.3-1.9,9.3
		C74.5,177.3,84.4,177.4,85.4,176.8L85.4,176.8z"/>
</g>
</svg>
