<?xml version="1.0" encoding="utf-8"?>
<!-- Generator: Adobe Illustrator 23.0.5, SVG Export Plug-In . SVG Version: 6.00 Build 0)  -->
<svg version="1.1" id="Слой_1" xmlns="http://www.w3.org/2000/svg" xmlns:xlink="http://www.w3.org/1999/xlink" x="0px" y="0px"
	 viewBox="0 0 258 149.9" style="enable-background:new 0 0 258 149.9;" xml:space="preserve">
<style type="text/css">
	.st0{fill:#899970;}
	.st1{fill:#596D3F;}
	.st2{fill:#7A8C62;}
	.st3{fill:#879B6A;}
	.st4{fill:#D1CAA3;}
	.st5{fill:#6A7F53;}
	.st6{fill:#C9C093;}
	.st7{fill:#BFAF6F;}
	.st8{fill:#C1B685;}
	.st9{fill:#E5E0C6;}
	.st10{fill:#D3CAA3;}
	.st11{fill:#798E5F;}
</style>
<g>
	<path class="st0" d="M231.4,34.6c-2.9,2.2-5.9,4.4-8,7.4c-3.9,5.4-4.5,11.3-11,14.2c-5.4,2.4-11.7,3.3-17.4,1.9
		c-1.2-0.3-2.5-0.6-3.5-1.4c-5-3.9-7.4-10.1-4.9-16.1c1.6-3.9,4.2-8.1,7.1-11.2c1.2-1.2,2.3-2.5,3.9-3.2c2.3-1,5-1.7,7.5-2.2
		c10.6-2.2,18.2,3.8,26.8,8.9"/>
	<path class="st1" d="M210.7,38c-3.6,3-5.4,7.6-7,12c0.1-2.7-0.3-5.4-1.1-7.9c-0.1-0.3-0.2-0.7-0.1-1.1c0.1-0.2,0.2-0.3,0.3-0.4
		c6.2-6.3,15.2-10.4,23.8-8.5c-2.4,1.2-5.6,1.3-8.2,2.1C215.7,34.9,213,36.1,210.7,38z"/>
	<path class="st0" d="M33.4,36.8c2.9,2.2,5.9,4.4,8,7.4c3.9,5.4,4.5,11.3,11,14.2c5.4,2.4,11.7,3.3,17.4,1.9
		c1.2-0.3,2.5-0.6,3.5-1.4c5-3.9,7.4-10.1,4.9-16.1c-1.6-3.9-4.2-8.1-7.1-11.2c-1.2-1.2-2.3-2.5-3.9-3.2c-2.3-1-5-1.7-7.5-2.2
		c-10.6-2.2-18.2,3.8-26.8,8.9"/>
	<path class="st1" d="M54,40.2c3.6,3,5.4,7.6,7,12c-0.1-2.7,0.3-5.4,1.1-7.9c0.1-0.3,0.2-0.7,0.1-1.1c-0.1-0.2-0.2-0.3-0.3-0.4
		c-6.2-6.3-15.2-10.4-23.8-8.5c2.4,1.2,5.6,1.3,8.2,2.1C49.1,37.1,51.8,38.3,54,40.2z"/>
	<path class="st2" d="M32,103.1c-8.2-13.4-18.2-26.4-32-34c10.8-7.9,24-12.5,37.4-12.9C52.1,55.7,67.9,61,76,73.3
		c2.2,3.4,3.8,7.2,4.8,11.1c3.9,15.1-4.9,25.4-18.2,31.3C50.3,121.2,38.3,113.4,32,103.1z"/>
	<path class="st3" d="M47.4,59.1c-6.8-2.7-14.5-3.3-21.6-1.7C19,59,12.6,62.1,6.5,65.6c-3,1.7-0.3,6.4,2.7,4.7
		c5.6-3.2,11.3-6,17.6-7.5c6.4-1.5,13.1-0.9,19.2,1.6c1.4,0.5,3-0.6,3.3-1.9C49.7,60.9,48.8,59.6,47.4,59.1L47.4,59.1z"/>
	<path class="st1" d="M12.2,67.1c6.5,1.3,12.8,3.3,18.8,6.1c2.9,1.3,5.7,2.7,8.4,4.4c2.6,1.6,5.1,3.4,6.5,6.1
		c0.4,0.8,1.7,0.1,1.3-0.7c-1.3-2.6-3.5-4.5-5.9-6c-2.9-1.8-5.9-3.4-9-4.8c-6.3-2.9-12.9-5-19.6-6.4C11.7,65.5,11.3,66.9,12.2,67.1
		L12.2,67.1z"/>
	<path class="st1" d="M32.8,62.2c1.8,2.1,3.3,4.4,4.4,7c0.5,1.3,1,2.6,1.4,3.9c0.4,1.4,1,2.8,1,4.3c0,0.9,1.3,0.9,1.4,0
		c0-1.4-0.4-2.8-0.9-4.2c-0.5-1.5-1-3-1.6-4.5c-1.2-2.7-2.7-5.2-4.7-7.4C33.1,60.6,32.2,61.5,32.8,62.2L32.8,62.2z"/>
	<path class="st1" d="M46.5,81.5C40.4,76,30.5,78.4,24.6,83c-0.7,0.5,0,1.7,0.7,1.2c5.4-4.2,14.6-6.7,20.3-1.7
		C46.2,83,47.1,82.1,46.5,81.5L46.5,81.5z"/>
	<path class="st2" d="M226,100.1c8.2-13.4,18.2-26.4,32-34c-10.8-7.9-24-12.5-37.4-12.9c-14.7-0.5-30.5,4.8-38.6,17.1
		c-2.2,3.4-3.8,7.2-4.8,11.1c-3.9,15.1,4.9,25.4,18.2,31.3C207.7,118.2,219.7,110.5,226,100.1z"/>
	<path class="st3" d="M212,61.3c6.1-2.4,12.8-3.1,19.2-1.6c6.3,1.5,12,4.3,17.6,7.5c3,1.7,5.8-2.9,2.7-4.7
		c-6.1-3.5-12.5-6.6-19.3-8.2c-7.1-1.6-14.8-1-21.6,1.7c-1.4,0.5-2.3,1.8-1.9,3.3C209.1,60.7,210.7,61.9,212,61.3L212,61.3z"/>
	<path class="st1" d="M245.4,62.7c-6.8,1.4-13.4,3.5-19.6,6.4c-3,1.4-6,2.9-8.8,4.7c-2.5,1.6-4.8,3.5-6.1,6.1
		c-0.4,0.8,0.8,1.6,1.3,0.7c1.4-2.7,3.7-4.5,6.3-6c2.8-1.7,5.6-3.1,8.6-4.5c6-2.7,12.4-4.7,18.8-6.1
		C246.7,63.9,246.3,62.5,245.4,62.7L245.4,62.7z"/>
	<path class="st1" d="M224.3,58.3c-2,2.2-3.5,4.7-4.7,7.4c-0.6,1.4-1.1,2.8-1.5,4.3c-0.5,1.4-1,2.9-0.9,4.4c0,0.9,1.4,0.9,1.4,0
		c0-1.4,0.5-2.7,0.9-4c0.4-1.4,0.9-2.8,1.5-4.1c1.1-2.5,2.5-4.9,4.4-7C225.8,58.6,224.9,57.6,224.3,58.3L224.3,58.3z"/>
	<path class="st1" d="M212.5,79.5c5.7-5.1,14.8-2.5,20.3,1.7c0.7,0.5,1.4-0.6,0.7-1.2c-5.9-4.6-15.8-7-21.9-1.5
		C210.9,79.1,211.8,80.1,212.5,79.5L212.5,79.5z"/>
	<path class="st4" d="M111.7,138.8c-19.9-3.9-38.4-15.8-49.9-32.5C56.5,98.5,50.7,89,49.6,79.6c-1-9,4.2-18.9,13.5-21
		c-4.7,1.1-5-14.7-4.9-17.4c0.7-12.3,7.2-22.5,17.8-28.5C81.9,9.5,87.9,7.9,94.5,8c6.4,0.1,12.7,1.9,19.2,1.6
		c5.4-0.2,9.7-4.7,14.5-6.7c5.9-2.5,12.3-3.4,18.7-2.6c12.2,1.4,24.1,8.7,31.4,18.4c3.3,4.4,8.4,5.6,12.8,9c5.1,3.9,9.1,9,12,14.7
		c5.8,11.5,8.3,27.5,6.5,40.2c-1.7,11.5-12.7,27.2-20.8,34.9C168.7,136.8,139.5,144.2,111.7,138.8z"/>
	<path class="st5" d="M64.8,132.7c-3.6-2.6-7.3-5.2-10.2-8.5c-8.8-9.8-11.4-25.2-22.7-31.8c16.7-5.4,35.4-2,50.5,6.8
		c12.1,7,25.1,18.7,31.4,31.4c8.5,17-14.3,18.6-25.1,15.3C80,143,72.2,137.9,64.8,132.7z"/>
	<path class="st6" d="M203,42.4c-2.9-5.7-6.9-10.8-12-14.7c-4.4-3.3-9.5-4.5-12.8-9c-7.3-9.8-19.2-17-31.4-18.4
		c-6.3-0.7-12.8,0.2-18.7,2.6c-0.3,0.1-0.5,0.2-0.8,0.4v137.3c22.7,0.6,45.1-7.3,61.4-23c8-7.8,19.1-23.4,20.8-34.9
		C211.4,69.9,208.8,53.9,203,42.4z"/>
	<path class="st7" d="M150.5,63.5c9.7-6.7,22.7-11.4,33.8-5.2c8.4,4.6,13.4,14.6,13.2,24.1c-0.1,5.3-2.2,10.3-6.6,13.3
		c-1.1,0.7-0.1,2.5,1,1.8c8.9-6.2,9-18.2,5.1-27.4c-1.9-4.6-4.8-8.7-8.8-11.6c-5.3-3.9-11.8-5.6-18.4-4.9c-7.4,0.8-14.4,4-20.5,8.2
		C148.4,62.5,149.5,64.3,150.5,63.5L150.5,63.5z"/>
	<path class="st8" d="M171,11.5c1.3,1.8,2.9,3,4.7,4.1c-1.7-1.9-3.6-3.6-5.6-5.3C170.4,10.7,170.7,11.1,171,11.5z"/>
	<path class="st8" d="M203,42.4c-2.9-5.7-6.8-10.8-11.9-14.7c1.8,2.3,3.3,4.8,4.7,7.4c5.8,11.5,8.3,27.5,6.5,40.2
		c-1.7,11.5-12.7,27.2-20.8,34.9c-14.5,14-33.9,21.7-54.1,22.8v7.3c22.7,0.6,45.1-7.3,61.4-23c8-7.8,19.1-23.4,20.8-34.9
		C211.4,69.9,208.8,53.9,203,42.4z"/>
	<path class="st9" d="M97,10.4c-3.8,0-7.2,0.9-10.7,2.2c-3.2,1.3-6.3,2.7-9.3,4.4c-2.9,1.8-5.7,3.9-8.1,6.3
		c-2.6,2.7-4.3,5.9-5.6,9.5c-0.7,1.8-1.2,3.4-1.4,5.3c-0.2,2-0.6,3.9-0.5,5.9c0.1,3.8,0.6,7.6,2.1,11.1c0.7,1.7,1.5,3.3,2.4,4.8
		c0.5,0.8,1,1.7,1.5,2.5c0.2,0.3,0.3,0.6,0.5,0.8c0.2,0.3,0.3,0.5,0.5,0.8c-0.1-0.3-0.1-0.5,0.1-0.8c-0.2-0.3-2.4,0.6-2.9,0.8
		c-1.5,0.6-2.9,1.3-4.1,2.2c-5.6,4.1-8.3,11-6.9,17.8c0.7,3.4,5.9,2,5.2-1.4c-0.9-4.5,1.1-9.4,4.8-12c1-0.7,2-1.2,3.1-1.6
		c1.5-0.5,3.1-0.6,4.4-1.7c1.2-1.1,1.8-2.6,1.6-4.2c-0.3-1.8-1.6-3.4-2.6-5c-1.6-2.8-3.1-5.6-3.7-8.8c-0.4-1.7-0.4-3.5-0.5-5.3
		c0-1.8,0.3-3.6,0.5-5.4c0.3-3,1.8-6.3,3.4-8.8c1.6-2.5,4.1-4.6,6.5-6.4c2.8-2,6-3.6,9.2-5c3.5-1.5,6.8-2.6,10.7-2.6
		C100.4,15.8,100.4,10.3,97,10.4L97,10.4z"/>
	<path class="st9" d="M124.4,26c-7.9-1.1-16.6-0.9-23.5,3.7c-6.3,4.2-10.4,11.5-9.9,19.1c0.3,4.5,2,8.7,4.8,12.1
		c1.7,2,4.5-0.9,2.9-2.9c-5.4-6.4-4.6-15.9,0.9-21.9c6-6.6,15.4-7.4,23.8-6.2c1.1,0.2,2.2-0.3,2.5-1.4
		C126.1,27.5,125.5,26.1,124.4,26L124.4,26z"/>
	<path class="st10" d="M160.3,64.8c6.5-3.4,14.7-2.6,20.7,1.5c5.2,3.5,8.8,10.2,7.8,16.5c-0.6,3.7-2.7,7.2-5.9,9.2
		c-2.9,1.8-0.2,6.5,2.7,4.7c7.7-4.9,10.6-14.8,7.4-23.2c-3.1-8.5-10.8-14.6-19.8-15.9c-5.4-0.8-10.8,0-15.7,2.5
		C154.5,61.7,157.2,66.4,160.3,64.8L160.3,64.8z"/>
	<path class="st10" d="M144.4,30.6c-0.4,1.1-0.6,0.3,0,0.4c0.4,0,0.9-0.2,1.2-0.3c0.9-0.2,1.8-0.4,2.8-0.5c1.7-0.2,3.4-0.3,5.1-0.2
		c3,0.1,6,0.8,8.9,1.9c5,1.8,9.5,5.3,11.5,10.3c0.4,1,1.4,1.7,2.5,1.4c1-0.3,1.8-1.5,1.4-2.5c-2.7-6.6-8.2-11.1-14.9-13.4
		c-3.7-1.3-7.6-1.9-11.4-1.8c-2.2,0-4.5,0.3-6.7,0.8c-1.9,0.4-3.6,0.8-4.3,2.8C139.5,32,143.5,33.1,144.4,30.6L144.4,30.6z"/>
	<path class="st10" d="M129,76.4c6.6-0.2,13.2,2,18,6.5c4.7,4.4,7.7,10.5,8,17c0.2,3.5,5.6,3.5,5.4,0c-0.4-7.8-3.8-15.4-9.6-20.8
		c-5.9-5.4-13.9-8.4-21.9-8.1C125.6,71.1,125.5,76.5,129,76.4L129,76.4z"/>
	<path class="st5" d="M70.2,134.7c-4.2-2.7-8.5-5.5-11.9-8.9c-10.2-10.3-13.2-26.4-26.4-33.4c19.4-5.6,41.1-2.1,58.7,7.1
		c14,7.4,29.1,19.6,36.5,32.9c9.9,17.9-16.6,19.5-29.1,16C87.8,145.6,78.8,140.2,70.2,134.7z"/>
	<path class="st1" d="M128.8,142.1c-14.2,4-29.6-1.5-41.2-9.8c-5.2-3.7-9.5-8.3-13.6-13.2c-4.1-4.9-8.3-9.7-13.1-14.1
		c-5.8-5.3-13.2-10.6-21.4-10.8c-1,0-1,1.5,0,1.5C47.2,96,54.2,101,59.7,106c4.8,4.4,9.1,9.3,13.3,14.3c4,4.8,8.2,9.3,13.3,13
		c5.8,4.2,12.4,7.6,19.3,9.6c7.6,2.3,15.9,2.9,23.6,0.7C130.1,143.3,129.8,141.9,128.8,142.1L128.8,142.1z"/>
	<path class="st1" d="M91,135.6c2.7-2.6,3.8-6.7,2.3-10.3c-1-2.3-2.6-4.1-3.3-6.5c-0.6-2.2-1-4.9,1-6.5c0.7-0.6-0.3-1.7-1.1-1.1
		c-3.3,2.7-1.8,8-0.1,11.1c1.1,2.1,2.6,3.7,2.7,6.2c0,2.3-1,4.4-2.6,5.9C89.3,135.2,90.4,136.3,91,135.6L91,135.6z"/>
	<path class="st1" d="M80.5,127c-5.8-1.3-11.8-1.6-17.7-1c-0.9,0.1-1,1.6,0,1.5c5.8-0.7,11.6-0.4,17.3,0.9
		C81,128.7,81.4,127.2,80.5,127L80.5,127z"/>
	<path class="st1" d="M97.2,138.7c-4.2,1.4-8.6,1.7-12.9,1c-0.9-0.2-1.3,1.3-0.4,1.4c4.6,0.8,9.2,0.5,13.7-1
		C98.5,139.8,98.1,138.4,97.2,138.7L97.2,138.7z"/>
	<path class="st1" d="M117.9,142c-1.7-1-3.2-2.4-4.1-4.2c-1-2-1.3-4.3-1.5-6.6c-0.1-0.9-1.6-1-1.5,0c0.2,2.5,0.5,5.1,1.7,7.3
		c1,2,2.7,3.6,4.6,4.8C118,143.8,118.7,142.5,117.9,142L117.9,142z"/>
	<path class="st11" d="M48.9,96.4c11.9,0,23.7,2.9,34.5,7.7c11,4.9,21.2,11.7,29.5,20.5c4.3,4.5,8,9.5,10.8,15.1
		c0.7,1.4,2.8,1.8,4.1,1.1c1.5-0.9,1.8-2.6,1.1-4.1c-5.6-11-14.5-20.1-24.4-27.3c-10.3-7.5-22.3-13.2-34.7-16.3
		C63,91.4,56,90.4,48.9,90.4C45.1,90.4,45.1,96.4,48.9,96.4L48.9,96.4z"/>
	<circle class="st7" cx="89.8" cy="79.6" r="1.6"/>
	<circle class="st7" cx="137.7" cy="90.6" r="1.4"/>
	<circle class="st7" cx="137.7" cy="90.9" r="1.4"/>
	<circle class="st7" cx="103.9" cy="49.6" r="1.4"/>
	<circle class="st7" cx="116.8" cy="52.3" r="1.4"/>
	<circle class="st7" cx="74.9" cy="33.9" r="1.4"/>
	<circle class="st7" cx="66" cy="77.1" r="1.4"/>
	<circle class="st7" cx="123.9" cy="85.5" r="1.4"/>
	<circle class="st7" cx="118.2" cy="96.6" r="1.4"/>
	<circle class="st7" cx="142.5" cy="87.1" r="1.4"/>
	<circle class="st7" cx="78.2" cy="88.8" r="1.4"/>
	<circle class="st7" cx="171.5" cy="73.6" r="1.4"/>
	<circle class="st7" cx="175.2" cy="85.5" r="1.4"/>
	<circle class="st7" cx="185.2" cy="75.5" r="1.4"/>
	<circle class="st7" cx="196.6" cy="52.3" r="1.4"/>
	<circle class="st7" cx="200.9" cy="63.6" r="1.4"/>
	<circle class="st7" cx="154.4" cy="47.1" r="1.4"/>
	<circle class="st7" cx="160.9" cy="36.3" r="1.4"/>
	<circle class="st7" cx="171.5" cy="45.5" r="1.4"/>
	<circle class="st7" cx="132.8" cy="96.6" r="1.4"/>
	<circle class="st7" cx="127.4" cy="16.8" r="1.4"/>
	<circle class="st7" cx="137.3" cy="14.5" r="1.2"/>
	<circle class="st7" cx="148.9" cy="12.1" r="1.2"/>
	<circle class="st7" cx="74.8" cy="72.1" r="1.2"/>
	<circle class="st7" cx="79.4" cy="45.4" r="1.2"/>
	<circle class="st7" cx="84.8" cy="22.9" r="1.2"/>
	<circle class="st7" cx="70.2" cy="43.2" r="1.2"/>
	<circle class="st7" cx="122.4" cy="40" r="1.2"/>
	<path class="st5" d="M188.4,134.7c4.2-2.7,8.5-5.5,11.9-8.9c10.2-10.3,13.2-26.4,26.4-33.4c-19.4-5.6-41.1-2.1-58.7,7.1
		c-14,7.4-29.1,19.6-36.5,32.9c-9.9,17.9,16.6,19.5,29.1,16C170.8,145.6,179.8,140.2,188.4,134.7z"/>
	<path class="st1" d="M129.3,143.6c13.9,4,29.1-1,40.7-8.8c5.4-3.6,10-8.1,14.3-13c4.1-4.8,8.1-9.5,12.6-13.9
		c5.8-5.7,13.6-11.9,22.2-12.1c1,0,1-1.5,0-1.5c-7.3,0.2-14,4.5-19.4,9.1c-5.1,4.3-9.6,9.3-13.8,14.3c-3.9,4.7-7.8,9.2-12.6,13
		c-5.7,4.5-12.3,8.1-19.3,10.4c-7.8,2.5-16.2,3.4-24.2,1.1C128.8,141.9,128.4,143.3,129.3,143.6L129.3,143.6z"/>
	<path class="st1" d="M168.5,134.6c-1.6-1.6-2.6-3.6-2.6-5.9c0-2.5,1.5-4.2,2.7-6.2c1.7-3.2,3.2-8.4-0.1-11.1
		c-0.7-0.6-1.8,0.4-1.1,1.1c2,1.6,1.6,4.3,1,6.5c-0.7,2.4-2.4,4.3-3.3,6.5c-1.5,3.5-0.4,7.6,2.3,10.3
		C168.2,136.3,169.2,135.2,168.5,134.6L168.5,134.6z"/>
	<path class="st1" d="M178.5,128.5c5.7-1.3,11.5-1.6,17.3-0.9c1,0.1,0.9-1.4,0-1.5c-5.9-0.7-11.9-0.3-17.7,1
		C177.1,127.2,177.5,128.7,178.5,128.5L178.5,128.5z"/>
	<path class="st1" d="M160.9,140.1c4.4,1.5,9.1,1.8,13.7,1c0.9-0.2,0.5-1.6-0.4-1.4c-4.3,0.7-8.7,0.4-12.9-1
		C160.4,138.4,160,139.8,160.9,140.1L160.9,140.1z"/>
	<path class="st1" d="M141.4,143.3c1.9-1.2,3.6-2.7,4.6-4.8c1.2-2.3,1.4-4.8,1.7-7.3c0.1-1-1.4-0.9-1.5,0c-0.2,2.2-0.4,4.6-1.5,6.6
		c-0.9,1.8-2.4,3.2-4.1,4.2C139.8,142.5,140.6,143.8,141.4,143.3L141.4,143.3z"/>
	<path class="st11" d="M209.6,90.4c-12.9,0-25.6,3.2-37.3,8.5c-11.5,5.2-22.3,12.5-31,21.6c-4.6,4.8-8.6,10.3-11.6,16.2
		c-0.7,1.4-0.4,3.2,1.1,4.1c1.3,0.8,3.4,0.4,4.1-1.1c5.1-10.1,13.2-18.6,22.4-25.3c9.9-7.2,21.1-12.5,32.9-15.6
		c6.4-1.7,12.9-2.6,19.5-2.5C213.5,96.4,213.5,90.4,209.6,90.4L209.6,90.4z"/>
	<path class="st7" d="M106,106.5c-2.5-6.1-3.4-12.8-1.5-19.1c1.7-5.8,5.6-10.7,10.7-13.9c5.7-3.5,13.1-5.3,19.8-4.2
		c6.9,1.1,13.1,4.9,17.6,10.1c5.2,6,7.9,13.8,7.1,21.7c-0.1,1.3,1.9,1.3,2,0c1.5-14.9-9.3-29.5-23.7-33.2
		c-13.4-3.4-29.2,3.3-34.6,16.3c-3.1,7.4-2.4,15.6,0.5,22.9C104.5,108.2,106.4,107.7,106,106.5L106,106.5z"/>
	<path class="st7" d="M70.6,58.6c8.6-1.9,16.7,2.7,21.6,9.6c0.7,1,2.4,0.1,1.8-1c-4.5-7.3-7.6-16.3-5.7-25
		c1.7-7.6,7.1-13.2,14.3-15.8c6.9-2.5,14.2-3,21.3-0.9c6.6,2,13.2,6.1,16.3,12.5c2.7,5.8,4.2,15.3-1.2,20.1c-1,0.9,0.5,2.3,1.4,1.4
		c5.4-4.7,4.8-13.3,2.8-19.4c-1.1-3.3-2.7-6.2-5.1-8.7c-2.8-2.8-6.3-5-9.9-6.5c-3.7-1.6-7.8-2.6-11.8-2.8c-3.9-0.2-7.9,0.5-11.7,1.6
		c-7.5,2.1-13.9,6.7-17,14.1c-4.2,10.1-0.9,21.5,4.6,30.4c0.6-0.3,1.2-0.7,1.8-1C88.5,59.5,79.6,54.6,70,56.6
		C68.8,56.9,69.3,58.9,70.6,58.6L70.6,58.6z"/>
	<path class="st7" d="M136,31.5c7.6-12.8,28-10.2,37.6-1.3c2.9,2.7,4.9,6,5.6,9.9c0.2,1.3,2.2,0.7,2-0.5
		c-2.8-15.6-24.1-22.4-37.5-17c-3.9,1.6-7.2,4.3-9.4,7.9C133.6,31.6,135.4,32.6,136,31.5L136,31.5z"/>
</g>
</svg>
