<?xml version="1.0" encoding="utf-8"?>
<!-- Generator: Adobe Illustrator 23.0.5, SVG Export Plug-In . SVG Version: 6.00 Build 0)  -->
<svg version="1.1" id="Layer1" xmlns="http://www.w3.org/2000/svg" xmlns:xlink="http://www.w3.org/1999/xlink" x="0px" y="0px"
	 viewBox="0 0 198.4 261.1" style="enable-background:new 0 0 198.4 261.1;" xml:space="preserve">
<style type="text/css">
	.Arched_x0020_Green{fill:url(#SVGID_1_);stroke:#FFFFFF;stroke-width:0.25;stroke-miterlimit:1;}
	.st0{fill:#4CA147;}
	.st1{fill:#8CC747;}
	.st2{fill:#7FB540;}
	.st3{fill:#54B04E;}
</style>
<linearGradient id="SVGID_1_" gradientUnits="userSpaceOnUse" x1="-70.8661" y1="268.1785" x2="-70.159" y2="267.4714">
	<stop  offset="0" style="stop-color:#20AC4B"/>
	<stop  offset="0.9831" style="stop-color:#19361A"/>
</linearGradient>
<g>
	<path class="st0" d="M61.4,73c0,0-1.3,11.1-9.6,16c-8.3,4.9-19.1,1.6-20.5-1.3c-1.3-2.8,7.3-12.1,7.3-12.1s-15.4-2.5-15.2-9.3
		c0.2-6.8,16.3-7.1,16.3-7.1s-7.2-12-0.6-14.4c6.6-2.4,17.5,6.6,20.1,13.1C61.7,64.4,61.4,73,61.4,73z"/>
	<path class="st1" d="M132.4,43.4c0,0-15,13-17.1,26.2c-2,13.1,8.7,107.7,3.4,130.7c-5.3,23-8.5,35.8-16.9,44.9
		c-8.3,9.1-17.9,11-24.5,4.7c-6.6-6.3,4.6-23.7,4.6-23.7s18.8-43.6,18.5-85.7c-0.3-42.1-2-69.8-2-69.8s-3.4-9.6-7.5-14.5
		C86.9,51.2,79.7,37,79.7,37l3.2-2.9l22.7,27.8c0,0,6.4-5.9,14.1-12.1c7.7-6.2,11.5-9.4,11.5-9.4L132.4,43.4z"/>
	<path class="st0" d="M161,27.7c0,0,11-7.8,8.4-13c-2.6-5.2-15.1,0.7-15.1,0.7s1.2-12-4.7-11.3c-5.4,0.6-10.3,10-10.8,16.2
		c-0.4-3-1.6-5.9-4.6-5.6c-5.9,0.7-11.2,11.8-10.8,17.8c0.3,6,3.7,12.5,3.7,12.5s4.9,8.1,13.1,8.7c8.2,0.6,15.3-6.1,15.4-8.8
		c0-0.6-0.5-1.3-1.3-2c0.4,0.1,0.9,0.1,1.3,0.2c8.2,0.6,15.3-6.1,15.4-8.8C170.9,31.6,161,27.7,161,27.7z M139,24.1
		c0.1,0.6,0.2,1.2,0.4,1.8c-0.3,0.1-0.5,0.2-0.5,0.2S139,25.3,139,24.1z M145.6,38.2c0,0,0.1,0.1,0.1,0.1
		C145.7,38.3,145.6,38.3,145.6,38.2C145.6,38.3,145.6,38.3,145.6,38.2z"/>
	<path class="st2" d="M77.1,249.7c2.4-5.1,2.1-4.6,10.2-17.5c0,0,13.3-21.8,17.4-69c3-35.2-2.7-142.5-2.7-142.5l2.9,1
		c0,0,9.6,110.3,7.7,147.2c-1.9,36.8-7.4,53.8-14.4,67.1c-3.3,6.2-9.7,13.1-15.3,17.1C80.8,252.7,78.6,251.3,77.1,249.7z"/>
	<path class="st0" d="M107.2,34.3c0,0,8.5-0.2,12.8-7.2c4.3-7,2.5-16.9,0.5-18.3c-2.1-1.4-9.7,5.4-9.7,5.4s-0.8-13.9-6-14.3
		c-5.2-0.4-6.5,13.8-6.5,13.8s-8.6-7.4-10.9-1.7c-2.3,5.6,3.8,16.1,8.5,18.9C100.6,33.8,107.2,34.3,107.2,34.3z"/>
</g>
<g>
	<path class="st1" d="M34.5,63.4c0,0,15.3,11.1,18.2,23.3c2.9,12.3,0.3,102.7,7.2,124c6.8,21.3,10.9,33.1,19.6,41.1
		c8.6,7.9,17.8,8.9,23.6,2.4c5.8-6.5-6.3-22-6.3-22s-21.2-39.7-24.3-79.6c-3.1-39.9-3.7-66.2-3.7-66.2s2.5-9.4,6-14.4
		c3.5-5.1,9.2-19.1,9.2-19.1l-3.3-2.5L61.3,78.6c0,0-6.5-5-14.3-10.2c-7.8-5.2-11.7-8-11.7-8L34.5,63.4z"/>
	<path class="st3" d="M33.2,37.2c-2.5,0-3.6,2.2-4,4.7c-1.7-5.6-6.4-12.3-11-12.4c-5.7-0.1-3.5,11.1-3.5,11.1S2.3,36.1,0.3,41.2
		c-2.1,5.1,9,11.6,9,11.6s-9.1,4.5-8.9,7.1c0.2,2.6,7.5,8.3,15.2,7c0.5-0.1,0.9-0.2,1.3-0.3c-1.7,1.3-3.1,2.7-3,3.7
		c0.2,2.7,7.8,8.8,15.9,7.2C38,76,42.4,67.2,42.4,67.2s2.9-7,2.8-13.1C45.1,48,39.2,37.2,33.2,37.2z"/>
	<path class="st3" d="M85.3,21.2c-2.4-0.9-4.2,0.8-5.4,3c0.4-5.8-1.7-13.8-6-15.5c-5.3-2.1-7.2,9.2-7.2,9.2S56.8,9.3,53,13.3
		c-3.7,4.1,4.4,14,4.4,14s-10.1,1.1-10.8,3.5c-0.7,2.5,4.1,10.4,11.8,11.9c0.5,0.1,0.9,0.1,1.3,0.2c-2.1,0.6-3.8,1.4-4.1,2.4
		c-0.8,2.6,4.2,11,12.4,12.4c8.2,1.4,15.3-5.2,15.3-5.2s5.2-5.6,7.2-11.3C92.7,35.5,90.9,23.3,85.3,21.2z"/>
	<path class="st0" d="M79.1,60.6c0,0,5.9,7.8,14.4,7.5c8.5-0.3,15.2-8,15-10.8c-0.3-2.8-11-5.7-11-5.7s10.6-9.3,7.4-14.3
		c-3.2-5.1-15.5,2.4-15.5,2.4s0-12.6-6-11.2C77.3,29.8,73,41.9,74,48C75,54.2,79.1,60.6,79.1,60.6z"/>
	<path class="st2" d="M103.2,253.9c-2.7-4.6-2.4-4.2-11.1-15.6c0,0-14.4-19.5-21.9-63.8c-5.6-33-8.8-135.1-8.8-135.1l-2.6,1.2
		c0,0-0.3,105.2,4.4,139.9c4.7,34.7,11.3,50.3,19,62.3c3.6,5.6,10.2,11.6,15.8,14.9C99.9,257.1,101.9,255.5,103.2,253.9z"/>
	<path class="st0" d="M59.6,45c0,0-7.4,1-11.9-3.9c-4.6-4.9-4.3-13-2.7-14.3c1.6-1.4,9.1,3,9.1,3s-1-11.1,3.4-12.1
		c4.4-1,7.3,10,7.3,10s6.5-7,9.2-2.8c2.6,4.2-1.3,13.2-5,16.1C65.3,43.8,59.6,45,59.6,45z"/>
</g>
<g>
	<path class="st1" d="M166.7,59c0,0-16.6,10.8-20.3,23.6c-3.7,12.8-5.3,107.9-13.5,130c-8.2,22.1-13.1,34.3-22.6,42.2
		c-9.4,7.9-19.2,8.5-24.9,1.3c-5.8-7.2,7.7-22.8,7.7-22.8s24.3-40.6,29.4-82.4c5.2-41.8,7.1-69.4,7.1-69.4s-2.2-10-5.6-15.5
		c-3.4-5.5-8.7-20.6-8.7-20.6l3.6-2.5l18.9,30.7c0,0,7.1-4.9,15.5-10c8.4-5.1,12.6-7.8,12.6-7.8L166.7,59z"/>
	<path class="st3" d="M198.2,43.4c-1.9-5.5-15-1.4-15-1.4s2.8-11.7-3.2-11.9c-4.3-0.1-9,5.3-11.4,10.5c-0.6-1.1-1.5-1.8-3-1.9
		c-6-0.1-12.6,10.2-13,16.1c-0.4,6,2,12.9,2,12.9s3.8,8.7,11.9,10.4c8,1.7,16-3.9,16.4-6.6c0.1-0.6-0.3-1.2-0.9-1.9
		c7.6,1,14.9-4.2,15.2-6.8c0.4-2.7-9-7.9-9-7.9S200.1,48.8,198.2,43.4z"/>
	<path class="st3" d="M120.1,53.1c0,0-6.1,7.2-14.2,6.6c-8.2-0.7-14.3-8.4-13.9-11.1c0.4-2.7,10.8-5,10.8-5s-9.8-9.4-6.4-14.1
		c3.3-4.7,14.8,3.1,14.8,3.1s0.5-12.1,6.3-10.5c5.8,1.6,9.3,13.4,8.1,19.3C124.3,47.2,120.1,53.1,120.1,53.1z"/>
	<path class="st2" d="M85.1,255.8c3-4.8,2.7-4.3,12.4-15.9c0,0,16-19.7,26.2-65.9c7.5-34.4,15.8-141.6,15.8-141.6l2.7,1.4
		c0,0-4.8,110.7-11.4,146.9c-6.6,36.3-14.3,52.3-23,64.5c-4,5.7-11.3,11.7-17.4,14.8C88.4,259.3,86.4,257.6,85.1,255.8z"/>
	<path class="st3" d="M142.2,46.6c0,0,7.7,1.4,12.7-3.5c5.1-4.9,5.1-13.4,3.5-15c-1.6-1.6-9.7,2.6-9.7,2.6s1.6-11.6-3-12.9
		c-4.6-1.3-8.2,10.2-8.2,10.2s-6.5-7.7-9.5-3.5c-3,4.2,0.7,14,4.5,17.2C136.3,45,142.2,46.6,142.2,46.6z"/>
</g>
</svg>
