<?xml version="1.0" encoding="utf-8"?>
<!-- Generator: Adobe Illustrator 22.0.1, SVG Export Plug-In . SVG Version: 6.00 Build 0)  -->
<svg version="1.1" id="Layer_1" xmlns="http://www.w3.org/2000/svg" xmlns:xlink="http://www.w3.org/1999/xlink" x="0px" y="0px"
	 viewBox="0 0 139.2 121.7" style="enable-background:new 0 0 139.2 121.7;" xml:space="preserve">
<style type="text/css">
	.st0{fill:#DE9272;}
	.st1{fill:#CC7D5F;}
	.st2{fill:#F5A789;}
	.st3{fill:#B59272;}
	.st4{fill:#A37D5F;}
	.st5{fill:#CCA789;}
	.st6{fill:#753F39;}
	.st7{fill:#63312F;}
	.st8{fill:#8A5350;}
	.st9{fill:#D3B4B4;}
	.st10{fill:#B73F39;}
	.st11{fill:#A5312F;}
	.st12{fill:#CC5350;}
</style>
<g>
	<g>
		<path class="st0" d="M14.1,98.9c-0.8,6.3-0.4,9.2,4.6,13.1c3.8,2.9,8.6,4.2,13,4.1c7.3-0.2,14-3.6,20.6-6.9
			c1.6-0.8,3.3-1.7,4.3-3.3c1.5-2.3,1.4-5.6,0.5-8.4s-2.4-5.3-3.6-8c-4.7-10.5-3.9-22.7-3-34.1C50.3,58,16.9,51.5,15.2,57
			c-0.4,1.4,1.4,5.5,1.5,7.2c0.3,3.6-0.2,7.5-0.5,11.1C15.8,83.2,15,91.1,14.1,98.9z"/>
		<path class="st1" d="M52.8,90.7c-4.7-10.6-4-23-3.1-34.5c-0.1,1.4-8.3,0.4-16.8-0.2c6.6,5.4,11.4,13.8,13.7,22.6
			c3.1,12.3-1,23.2-9,30.9c-4.8,4.6-11.3,6.9-17.4,5.6c3.4,1.9,7.2,2.8,10.8,2.7c7.3-0.2,14-3.6,20.6-7c1.6-0.8,3.3-1.7,4.3-3.3
			c1.5-2.3,1.4-5.7,0.5-8.6C55.6,96,54,93.4,52.8,90.7z"/>
		<path class="st2" d="M14.1,60c1,6.1,2.4,12.1,2.9,18.3c0.5,5.7-0.3,11.2-0.7,16.9c-0.3,5.3-0.9,20.7,8.4,18.4
			c3.7-0.9,2.1-6.7-1.6-5.8c-1.3,0.3,0.1-23,0.1-25c0-8.2-2-16.3-3.3-24.3C19.3,54.6,13.5,56.2,14.1,60L14.1,60z"/>
		<path class="st3" d="M59.1,100.1c-2.1,6-2.3,9,2.7,13.7c3.7,3.5,8.9,5.6,13.9,6.2c8.2,1,16.5-1.2,24.5-3.4c2-0.5,4-1.1,5.5-2.5
			c2.2-2,2.7-5.3,2.2-8.2s-1.7-5.7-2.6-8.5c-3.3-11.1,0-23,3.2-34.1c-0.8,2.6-37.1-9.4-40.1-4.3c-0.8,1.3,0.5,5.7,0.3,7.4
			c-0.4,3.6-1.7,7.4-2.7,10.9C64,84.9,61.7,92.6,59.1,100.1z"/>
		<path class="st4" d="M104.3,98.6c-3.3-11.3,0-23.3,3.2-34.6c-0.4,1.3-9.5-1-18.9-3c6.4,6.5,10.2,15.5,11.1,24.6
			c1.1,12.6-5.6,22.7-16,28.9c-6.3,3.7-14,4.9-20.6,2.6c3.4,2.4,7.5,3.9,11.6,4.4c8.2,1,16.5-1.2,24.5-3.4c2-0.5,4-1.1,5.5-2.5
			c2.2-2,2.7-5.4,2.2-8.3C106.4,104.2,105.2,101.5,104.3,98.6z"/>
		<path class="st5" d="M66.8,61.5c-0.1,6.1,0.3,12.3-0.2,18.4c-0.5,5.7-2.5,11-4,16.5c-1.5,5.5-4.7,20.8,5.3,20.1
			c4.1-0.3,4.1-6.7,0-6.4c-2.7,0.2,3.7-21.6,4.1-23.3c1.8-8.4,1.1-16.9,1.2-25.4C73.2,57.4,66.9,57.4,66.8,61.5L66.8,61.5z"/>
		<path class="st6" d="M55.6,79.9c-5.3,2.2-11.3,2.4-17,2.2C32.8,82,27,81.5,21.3,82.4c-6,1-12.8,3.3-17.6,0.1
			c-3.9-2.6-4.2-7.9-3.3-12.3c2.2-11.1,9.9-21.8,21.4-26.8c19.8-8.5,43.4,5.6,43.4,24.3C65.3,73.2,61.2,77.6,55.6,79.9z"/>
		<path class="st7" d="M45.1,42.6c6.8,5.8,12,13.8,8.6,22.5c-3,7.8-11.9,13-20.1,15.9c-0.8,0.3-1.6,0.6-2.4,0.8
			c2.6,0,5.1,0.2,7.7,0.2c5.7,0.2,11.7-0.1,17-2.2c5.7-2.3,9.7-6.7,9.7-12.1C65.6,56.2,56.6,46.5,45.1,42.6z"/>
		<path class="st8" d="M20.3,44.7C13.7,50.4,5.9,56.1,2.7,64.6C0.5,70.3,0.4,80.5,7,83.2c3.4,1.4,5-4.2,1.5-5.6
			c-1.6-0.7-1.3-6.2-1.2-7.6c0.3-3.3,1.9-5.3,3.6-7.8c3.7-5.5,8.4-9.1,13.4-13.4C27.3,46.4,23.2,42.3,20.3,44.7L20.3,44.7z"/>
		<ellipse transform="matrix(0.9814 -0.1921 0.1921 0.9814 -10.0517 5.0231)" class="st9" cx="20.9" cy="54.4" rx="6.2" ry="5.1"/>
		<ellipse transform="matrix(0.9814 -0.1921 0.1921 0.9814 -10.5925 7.187)" class="st9" cx="31.8" cy="58.2" rx="3.1" ry="2.6"/>
		<path class="st10" d="M120.8,71c-8.2,1.8-16.8,0.3-25-1.8c-8.2-2.1-16.3-4.7-24.8-5c-8.9-0.4-19.3,1.3-25.2-5.4
			c-4.9-5.5-3.8-14.1-1.3-21C50.8,20.5,64.9,5.5,82.7,1.2c30.7-7.5,60.5,22.8,55.4,53.2C136.6,63.3,129.6,69.1,120.8,71z"/>
		<path class="st11" d="M116.3,7.2c8.1,11.6,13.3,26.2,6,39.3c-6.5,11.7-20.7,17.3-33.2,19.4c-1.2,0.2-2.5,0.4-3.7,0.6
			c3.7,0.9,7.3,1.9,10.9,2.8c8.2,2.1,16.8,3.6,25,1.8c8.7-2,15.8-7.8,17.3-16.6C141.8,35.7,131.7,17,116.3,7.2z"/>
		<path class="st12" d="M80.4,2.8c-6,3.8-12.4,7.1-17.9,11.6c-2.8,2.3-4.6,5-7,7.6c-2,2.2-4.1,4-5.7,6.5c-3.4,5.5-4.4,12-4.9,18.4
			c-0.4,5.3,0.3,10.6,5.1,13.7c4.9,3.1,9.4-4.7,4.5-7.8c-2.1-1.3-0.5-8.8-0.1-10.9c1-5.7,3.3-9.1,7.1-13.1c3.4-3.6,6-7.1,10.2-10
			c4.3-2.9,8.9-5.3,13.2-8.1C89.7,7.4,85.2-0.4,80.4,2.8L80.4,2.8z"/>
		<ellipse class="st9" cx="78.3" cy="18.5" rx="9" ry="8.5"/>
		<ellipse class="st9" cx="92.8" cy="28.2" rx="4.5" ry="4.3"/>
	</g>
</g>
</svg>
