<?xml version="1.0" encoding="utf-8"?>
<!-- Generator: Adobe Illustrator 24.0.3, SVG Export Plug-In . SVG Version: 6.00 Build 0)  -->
<!DOCTYPE svg PUBLIC "-//W3C//DTD SVG 1.1//EN" "http://www.w3.org/Graphics/SVG/1.1/DTD/svg11.dtd" [
	<!ENTITY ns_extend "http://ns.adobe.com/Extensibility/1.0/">
	<!ENTITY ns_ai "http://ns.adobe.com/AdobeIllustrator/10.0/">
	<!ENTITY ns_graphs "http://ns.adobe.com/Graphs/1.0/">
	<!ENTITY ns_vars "http://ns.adobe.com/Variables/1.0/">
	<!ENTITY ns_imrep "http://ns.adobe.com/ImageReplacement/1.0/">
	<!ENTITY ns_sfw "http://ns.adobe.com/SaveForWeb/1.0/">
	<!ENTITY ns_custom "http://ns.adobe.com/GenericCustomNamespace/1.0/">
	<!ENTITY ns_adobe_xpath "http://ns.adobe.com/XPath/1.0/">
]>
<svg version="1.1" id="Layer_1" xmlns:x="&ns_extend;" xmlns:i="&ns_ai;" xmlns:graph="&ns_graphs;"
	 xmlns="http://www.w3.org/2000/svg" xmlns:xlink="http://www.w3.org/1999/xlink" x="0px" y="0px" viewBox="0 0 419.7 762.2"
	 style="enable-background:new 0 0 419.7 762.2;" xml:space="preserve">
<style type="text/css">
	.st0{fill:#FF9955;}
	.st1{fill:#008000;}
	.st2{fill:none;stroke:#D45500;stroke-width:2;}
	.st3{fill:#A05A2C;}
	.st4{fill:#803300;}
</style>
<metadata>
	<sfw  xmlns="&ns_sfw;">
		<slices></slices>
		<sliceSourceBounds  bottomLeftOrigin="true" height="762.2" width="419.7" x="191.2" y="189"></sliceSourceBounds>
	</sfw>
</metadata>
<path class="st0" d="M419.7,544.8c0,87-94,157.4-209.8,157.4S0,631.7,0,544.8s94-157.4,209.8-157.4S419.7,457.8,419.7,544.8z"/>
<path class="st1" d="M307,3.7c-18.4,133.4-89.9,283-89.9,396.8c7.5,0.9,13.9-7,21.4-7.3C227.9,319.9,355.3,23.1,307,3.7L307,3.7z"/>
<path class="st1" d="M271.9,6.5c-27,131.9-9.4,296.8-47.3,404.1c-7.3-1.6-10.8-11.2-17.7-14C241.3,331,220,8.8,271.9,6.5L271.9,6.5z
	"/>
<path class="st1" d="M206.9,0c-2.6,134.6,44.7,293.5,27,405.9c-7.5-0.3-12.6-9.1-20-10.5C235.8,324.7,156.2,11.7,206.9,0L206.9,0z"
	/>
<path class="st1" d="M168,71c8.1,112,67.2,236,58.7,332c-7.4,1-13.1-5.5-20.4-5.5C222.2,335.3,119.2,88.8,168,71L168,71z"/>
<path class="st1" d="M369.8,92.5c-37.3,105.9-126.9,210.1-143.9,305c6.9,2.9,14.1-1.9,21.2,0.1C248,333.5,412.2,122.6,369.8,92.5
	L369.8,92.5z"/>
<path class="st2" d="M218.2,394.8c-46.6,98.4-58.1,196.7-32.5,295.1"/>
<path class="st2" d="M226.9,398c29.2,110.7,18.8,207.8-35.7,289.6"/>
<path class="st2" d="M227.9,395.9c101.4,91.3,179.8,184.3-28.2,298.3"/>
<path class="st2" d="M247.4,396.4C493.5,542.8,366,621.9,235,696.9"/>
<path class="st2" d="M211.7,390.5c-131.4,112.2-113.4,187-44.4,299.4"/>
<path class="st2" d="M209.5,389.9c-260,98-149.4,217.1-70.4,299.4"/>
<path class="st3" d="M190.1,260.3c-10.8,0.1,24.1,102.1,13.3,102.7c10.4,37.7-30.3,38.7,4.9,38.2c14.2,17.4,25.6,1.9,35.9,5.3
	c11.4,4.3,1.9,0.1,17.2-0.3c-21.4-30,8.2-60.9,9.9-79.8c-20.1,49.2-2.7-21.2-11.8-19.5c-6.9,12.5-18.7,41.9-21.4,30.1
	c-1-9.6-9.4-43.1-15.6-44c-5.4,1.9-7.6-16.8-12.4-16.8C205.4,276.2,194.7,260.2,190.1,260.3L190.1,260.3z"/>
<path class="st4" d="M181.1,689.4c-13.4,1.2-26.9,2.8-40.1,5.6c-7.7,1.8-15.4,4-22.6,7.6c-7.2,3.6-14.7,7.6-19.6,14.1
	c-1.8,2.4-3.4,5.2-3.4,8.2c0.6,2.4,4,2.3,5.4,0.7c6.6-5.1,13.3-10.2,20.4-14.4c1.9-1.3,14.4-13.4,16.4-12.5c4,1.7-11.5,34.1-8.4,37
	c8.4,8.6,20-44.2,27.4-34.8c3.9,5.3,6,55.8,12.3,58.3c4.2,1.9-1.9-56.7,2.6-56.9c14.5-0.1,24.4,58.3,38.6,55.8
	c5.1-0.9-24.1-57.1-14.5-58.5c12.5-1.9,35.7,56.9,41.9,54.1c2.9-1.5-15.9-47.1-6.9-50.3c11.1-3.9,42.6,46.6,50.2,37.1
	c2.7-4.1-26.9-28.7-28.9-33.4c-2.4-5.5,25.6,3.8,20.8,0.5c-8-5.4-17.2-8.7-26.4-11.2c-15.2-4.3-31-5.9-46.7-6.8
	C193.5,689.3,187.3,689.2,181.1,689.4L181.1,689.4z"/>
<path class="st4" d="M193.6,685.8c13.2,2.7,26.4,5.9,39.3,10.3c7.5,2.8,14.9,6,21.7,10.6c6.8,4.7,13.8,9.8,18.1,17.3
	c1.5,2.8,2.8,5.9,2.6,9.2c-0.8,2.5-4.2,2.1-5.4,0.1c-6.1-6.2-12.2-12.4-18.9-17.8c-1.8-1.6-12.9-16-15.1-15.2
	c-4.1,1.4,8,37.9,4.7,40.7c-9.2,8.3-15.4-49.7-23.8-40.4c-4.4,5.3-11.6,59.4-18.1,61.5c-4.3,1.6,7.6-60.8,3.1-61.5
	c-14.4-1.6-30.1,60.1-44.1,55.9c-5-1.5,29.7-58.8,20.3-61.4c-12.2-3.4-41.2,57.3-47.1,53.7c-2.8-1.9,20.6-48.9,11.9-53.4
	c-10.6-5.4-47,45.6-53.7,34.5c-2.3-4.7,29.6-28,32.1-32.8c2.9-5.6-25.8,1.4-20.8-1.7c8.5-4.9,18-7.5,27.4-9.2
	c15.5-2.9,31.4-3,47.1-2.3C181.3,684.3,187.4,684.9,193.6,685.8L193.6,685.8z"/>
</svg>
