<svg id="レイヤー_1" data-name="レイヤー 1" xmlns="http://www.w3.org/2000/svg" viewBox="0 0 1248.55 1551.19">
  <title>fruits-raspberry–Fruit, Raspberry, Food ;  (7)</title>
  <circle cx="631.13" cy="443.61" r="178.24" transform="translate(-128.82 576.21) rotate(-45)" fill="#ff0019"/>
  <path d="M1063.58,569.66c40.45-93.75-2.75-202.55-96.5-243s-202.55,2.75-243,96.5,2.7,202.44,96.36,243,202.39-2.42,243-96Z" fill="#b7282c"/>
  <circle cx="348.25" cy="500.15" r="178.24" fill="#e61f19"/>
  <circle cx="237.1" cy="691.94" r="178.24" fill="#ff1f19"/>
  <circle cx="516.47" cy="628.52" r="185.04" fill="#b7282c"/>
  <circle cx="763.23" cy="669.95" r="178.24" fill="#e61f19"/>
  <path d="M1233.37,777.18c40.45-93.75-2.75-202.55-96.5-243s-202.55,2.74-243,96.5,2.7,202.44,96.37,242.94,202.39-2.41,243-96Z" fill="#d6282c"/>
  <circle cx="178.39" cy="892.79" r="178.24" fill="#e61f19"/>
  <circle cx="500.15" cy="875.53" r="185.04" transform="translate(-472.6 610.1) rotate(-45)" fill="#ff0019"/>
  <circle cx="817.36" cy="940.55" r="178.24" fill="#eb4c47"/>
  <path d="M476.78,1119.79c10-101.7-64.29-192.28-166-202.31s-192.27,64.29-202.3,166,64.29,192.27,166,202.3l.37,0C376.44,1295.71,466.84,1221.39,476.78,1119.79Z" fill="#b7282c"/>
  <circle cx="647.41" cy="1091.55" r="178.24" transform="translate(-582.22 777.5) rotate(-45)" fill="#e61f19"/>
  <circle cx="423.55" cy="1292.6" r="178.24" transform="translate(-789.95 678.09) rotate(-45)" fill="#e61f19"/>
  <path d="M1195.64,1060.17c40.45-93.75-2.75-202.55-96.5-243s-202.55,2.75-243,96.5,2.7,202.44,96.36,242.95,202.56-2.59,243.09-96.31Z" fill="#b7282c"/>
  <circle cx="892.73" cy="1280.22" r="178.24" fill="#e61f19"/>
  <circle cx="670.01" cy="1366.13" r="185.04" fill="#ff0019"/>
  <path d="M967.13,326.52c-59.16-93-211.29-61.28-211.29-61.28l99.61-55.39A805,805,0,0,0,649,244.11a1322.54,1322.54,0,0,0,36.22-160C624.83,204.87,579.56,245.47,560.09,259.05c-14.34-82.4,24.75-168.58,24.75-168.58a70.64,70.64,0,0,0-18.41-69.58C535-10,497.15-15.18,516.47,65.72a869,869,0,0,1,11.77,171c-25.81-12.23-70.78-4.53-114.55-18.72C351.81,198.23,293,134.39,293,134.39c2.26,43,51.61,93,94.93,128.74-65.5-5-140.36,0-202.39,30.18C77.73,347,28.22,337.38,9.51,328.93c28.07,16.3,117,58.26,245.1,28.23,32.15-7.7,58-13.59,78.63-18.42-24.14,22.79-47.69,68.07-60.37,155.31L241.48,719.23S560.84,224.34,535.79,357c-6.94,36.68,59.16,193.94,192,345,0,0,7.39-256.57-72.9-356.94a783.12,783.12,0,0,0,341.24,81.35c191.53,0,181.11-11.47,181.11-11.47S1026.3,419.34,967.13,326.52Zm-555.4-3.47-2-.91C420.78,320.33,411.73,323.05,411.73,323.05Z" fill="#078b43"/>
  <path d="M9.51,328.93A106.62,106.62,0,0,1,0,323.05,34.59,34.59,0,0,0,9.51,328.93Z" fill="#078b43"/>
</svg>
