<svg id="ѓЊѓCѓ_Ѓ_2" data-name="ѓЊѓCѓ„Ѓ[ 2" xmlns="http://www.w3.org/2000/svg" xmlns:xlink="http://www.w3.org/1999/xlink" viewBox="0 0 37.08 84.99"><defs><style>.cls-1{fill:url(#linear-gradient);}.cls-2{fill:url(#linear-gradient-2);}.cls-3{fill:#d3a573;}.cls-4{fill:url(#linear-gradient-3);}.cls-5{fill:url(#linear-gradient-4);}</style><linearGradient id="linear-gradient" x1="53.6" y1="476.88" x2="37.85" y2="543.13" gradientTransform="matrix(0.91, -0.42, 0.42, 0.91, -221.58, -303.7)" gradientUnits="userSpaceOnUse"><stop offset="0" stop-color="#bac889"/><stop offset="0.87" stop-color="#cd4350"/><stop offset="1" stop-color="#ebd9c9"/></linearGradient><linearGradient id="linear-gradient-2" x1="25.63" y1="473.23" x2="-3.12" y2="515.23" gradientTransform="matrix(0.91, -0.42, 0.42, 0.91, -221.58, -303.7)" gradientUnits="userSpaceOnUse"><stop offset="0" stop-color="#abb07c"/><stop offset="0.87" stop-color="#bf3e38"/><stop offset="1" stop-color="#e3b9a9"/></linearGradient><linearGradient id="linear-gradient-3" x1="26.59" y1="11.91" x2="10.84" y2="78.16" gradientTransform="matrix(1, 0, 0, 1, 0, 0)" xlink:href="#linear-gradient"/><linearGradient id="linear-gradient-4" x1="28.53" y1="30.61" x2="-0.22" y2="72.61" gradientTransform="matrix(1, 0, 0, 1, 0, 0)" xlink:href="#linear-gradient-2"/></defs><path class="cls-1" d="M18.24,1.55s-2.65,32.14-.55,54A220.19,220.19,0,0,0,21,78.27s-7.29,4.88-10-5.63-1.22-43-1.24-45.41C9.67,21.19,12.61.51,12.61.51Z"/><path class="cls-2" d="M11.91,0l1.66.6s-2.66,32.7-1.43,53.65c.45,7.74,2.25,20.19,4.35,25.28,0,0-4.76-1.11-6.15-8.44C7.89,58.16,8,17.57,11.91,0Z"/><path class="cls-3" d="M12.32,18s-.88,20.55-.78,29.06c.08,5.85,1.38,15.36,1.38,15.36S12,32,12.32,18Z"/><path class="cls-4" d="M37.08,14.27s-16,28-23.33,48.66a219.49,219.49,0,0,0-6.67,22S-1.58,86.27.42,75.6,17.51,36.12,18.5,33.93c2.5-5.5,13.92-23,13.92-23Z"/><path class="cls-5" d="M32,10.18l1.25,1.25s-16.25,28.5-24,48C6.39,66.64,2.75,78.68,2.5,84.18c0,0-3.84-3-2-10.25C3.75,61.18,21,24.43,32,10.18Z"/><path class="cls-3" d="M24.75,26.68s-9.5,18.25-13,26C9.34,58,6.5,67.18,6.5,67.18S18.5,39.18,24.75,26.68Z"/></svg>