<?xml version="1.0" encoding="utf-8"?>
<!-- Generator: Adobe Illustrator 23.0.5, SVG Export Plug-In . SVG Version: 6.00 Build 0)  -->
<svg version="1.1" id="Layer1" xmlns="http://www.w3.org/2000/svg" xmlns:xlink="http://www.w3.org/1999/xlink" x="0px" y="0px"
	 viewBox="0 0 297.6 269.3" style="enable-background:new 0 0 297.6 269.3;" xml:space="preserve">
<style type="text/css">
	.Arched_x0020_Green{fill:url(#SVGID_1_);stroke:#FFFFFF;stroke-width:0.25;stroke-miterlimit:1;}
	.st0{fill:#439341;}
	.st1{fill:#8CC747;}
	.st2{fill:#7FB540;}
	.st3{fill:#85BD43;}
	.st4{fill:#4AA147;}
</style>
<linearGradient id="SVGID_1_" gradientUnits="userSpaceOnUse" x1="-21.2595" y1="276.3782" x2="-20.5524" y2="275.6711">
	<stop  offset="0" style="stop-color:#20AC4B"/>
	<stop  offset="0.9831" style="stop-color:#19361A"/>
</linearGradient>
<g>
	<path class="st0" d="M95.2,182.3c-0.3-3.7-2.4-8.6-3.1-10.7c-1.9-6.6-2.2-14.2,2-20c3.4-4.7,8.6-7.4,13.5-10.2
		c6.7-3.8,9.4-9.7,8.3-17.3c-0.6-4.3,1.2-8.4,1.4-12.7c0.3-10.4-8-18.5-9.8-28.4c-0.6-3.6-0.2-7.1-1.3-10.6
		c-1.2-3.9-3.6-7.1-5.5-10.6c-2-3.6-3.1-7.7-5.1-11.3c-3.3-5.9-8.1-10.5-14.2-13.4c-6.9-3.2-13-8.3-20.1-11.1
		c-6.7-2.6-14.5-2-21.3,0.1c-3.4,1-6.8,2.2-9.7,4.3c-2.6,1.9-4.6,4.4-7.1,6.4c-4.4,3.4-9.4,5.9-12.4,10.7c-3,4.8-4.3,10.6-5,16.2
		C4.8,70.7,5,76.4,2.4,82.6c-1.8,4.3-2.9,8.9-2.1,13.6c0.8,5.4,4.2,9.2,6.5,14.1c1.8,3.7,3.2,7.4,4.1,11.4
		c1.1,5.5,1.7,11.2,4.4,16.3c3.9,7.1,9.7,13.4,17.3,16.5c10.5,4.2,21.4,3,31.8,7c5.4,2.1,10,5.9,14,10c2.7,2.7,5,5.8,7.2,9
		c1.3,1.9,5.3,8.6,8.4,6.2C95.1,185.6,95.4,184.1,95.2,182.3z"/>
	<g>
		<path class="st1" d="M91.5,84.3c0.3-1.3,0.4-2.1,0.4-2.1S91.8,83,91.5,84.3z"/>
		<path class="st2" d="M164.2,259.3c0,0-16.6-6.3-45.4-42.2c-29.1-36.2-38.8-65.8-38.3-68c0.5-2.3,7.5-7.9,12.7-16.4
			c5.4-9,5.5-16.7,5.5-16.7s-2.4,9.7-5.7,14.5c-0.7,1-1.4,1.9-2.1,2.9c0-1.3-0.1-3.2-0.4-4.6c-0.4-2.4-1.3-7.1-1.3-7.1
			s0.5,4.7,0.2,7.8c-0.1,1.8-0.4,4.3-0.5,6.2c-4.8,5.5-10,9.6-10,9.6s-4.2-8.8-4.1-11c0.2-4.5,6.6-19,10.8-29c3.2-7.6,5.2-17,6-21.1
			c-0.8,3.8-2.9,12.3-7.2,20.1c-0.5,0.9-1,1.9-1.5,2.9c-1.2-1.4-4.7-5.9-5.9-12.1c-1.2-6.1,0.7-14.1,0.7-14.1s-2.6,7.5-2.4,12.5
			c0.2,5.5,5.2,13.4,6.6,15.6c-4.9,10.2-9,22.5-9,22.5S57.5,96.2,56.7,87.9c-0.4-4.1-0.2-8.2-0.2-8.2s8.2-8.2,17.7-11.8
			c6.6-2.5,13.7-1.8,13.7-1.8s-5.6-2-13.7,0.5c-0.7,0.2-1.5,0.5-2.3,0.8c0.5-1.9,1.5-5.9,1.8-10.4C74.5,46,66.5,44,66.5,44
			s6.7,4.9,5.9,11.3c-0.5,4.2-2.1,10.5-2.8,13.1c-6.8,3.4-13.2,9.1-13.2,9.1s0.1-7.4-0.8-15.3c-0.9-7.9-6.7-26.6-6.7-26.6
			s3.7,15.8,5.1,25.2c-2.1-1.3-9.2-5.8-13.5-8.2c-3.7-2.1-14.8-3-14.8-3s10.5,2.3,15.4,5.3c6.2,3.7,13.2,8.2,13.2,8.2
			c1.1,8.8,0.4,24.1,0.4,24.1s-4.2-4-18.8-8C24,75.9,19.5,67.4,19.5,67.4s3,9.4,14.1,12.6c0.2,0.1,0.5,0.1,0.7,0.2
			c-1.3,1-6.9,5.1-11.5,5.3c-6.6,0.3-12.1,8.6-12.1,8.6s5.8-7.3,13-8c6.1-0.5,10.9-4.5,12.1-5.5c5.8,1.8,12.8,4.6,16.1,6.8
			c3.7,2.5,4.3,6.2,4.3,6.2s2.1,7.7,4.2,13.2c2.1,5.5,9.1,24.3,9.1,24.3s-5.9-4-16.9-8.4c-2.2-2.4-7-7.9-9.3-12.4
			c-3.1-5.9-7.8-17.1-7.8-17.1s3.2,11.4,5.3,16.5c1.5,3.8,6.3,9.2,8.8,11.8c-1.2-0.5-2.5-0.9-3.8-1.4c-15.4-5.4-26.5-23.2-26.5-23.2
			s6.2,14,23.1,23.2c9.2,5,22.5,9.2,28.2,15.1c5.7,6,10.5,29.2,10.5,29.2s-3.2-12.7-28.4-22.1c-2.3-2.2-6.7-6.4-8.9-9
			c-3.1-3.8-5.8-10-5.8-10s1.8,7.1,5.2,11.2c2,2.3,4.3,4.8,6,6.6c-0.6-0.2-1.2-0.4-1.8-0.6c-23.1-7.3-28-21.7-28-21.7
			s1.3,8.4,12.1,15.5c9.6,6.3,20.7,9.1,29.9,13.9c-1.2,0.9-3.8,2.5-6.6,2.6c-3.8,0.1-16.2-2.1-16.2-2.1s10.5,4.6,17.2,4
			c3.4-0.3,7.2-1.9,8.8-2.7c1,0.6,2,1.3,2.9,1.9c9.9,7.5,15,20.8,15,20.8S88,184,107.8,215c19.9,31,52.6,51.7,52.6,51.7s2.9-1,4-3.1
			C165.5,261.5,164.2,259.3,164.2,259.3z"/>
	</g>
</g>
<g>
	<path class="st0" d="M188.9,183.7c0.9-3.7,3.8-8.1,4.8-10.1c3-6.2,4.5-13.6,1.3-20c-2.6-5.2-7.3-8.7-11.7-12.3
		c-6-4.8-7.7-11.1-5.3-18.4c1.3-4.1,0.2-8.5,0.7-12.7c1.4-10.4,10.9-16.9,14.3-26.4c1.2-3.4,1.3-6.9,3-10.2c1.8-3.6,4.7-6.4,7.1-9.6
		c2.5-3.3,4.3-7.1,6.8-10.3c4.2-5.3,9.7-9.1,16.2-10.9c7.4-2.1,14.2-6.1,21.7-7.7c7.1-1.5,14.6,0.4,21,3.5c3.2,1.6,6.4,3.3,8.9,5.8
		c2.2,2.3,3.8,5.1,5.9,7.4c3.8,4,8.3,7.3,10.5,12.6c2.2,5.2,2.5,11.2,2.3,16.8c-0.2,6.7-1.3,12.4,0.3,19.1c1.1,4.5,1.4,9.3-0.1,13.7
		c-1.7,5.2-5.7,8.4-8.7,12.8c-2.3,3.4-4.4,6.7-5.9,10.6c-2,5.3-3.5,10.8-7,15.3c-5,6.4-11.8,11.6-19.7,13.4
		c-11,2.4-21.6-0.5-32.5,1.7c-5.7,1.2-10.8,4.2-15.4,7.5c-3.1,2.3-5.9,5-8.6,7.7c-1.6,1.6-6.7,7.6-9.3,4.8
		C188.5,187,188.4,185.5,188.9,183.7z"/>
	<g>
		<path class="st1" d="M275.1,133.4c0,0-2.5,2.5-6.2,5.6C273.4,135.8,275.1,133.4,275.1,133.4z"/>
		<path class="st3" d="M241.8,102.6c0,0,1.1-3.6,5.2-5.4c3.6-1.6,11-3.2,17.1-4.1c1.4,1.2,7.2,6,13.2,7.5c7.1,1.8,11.8-2.9,11.8-2.9
			s-5.5,3-12,1.6c-4.5-1-10.1-5.4-11.4-6.5c0.2,0,0.4-0.1,0.6-0.1c11.4-1.4,15.9-10.1,15.9-10.1s-5.8,7.6-18,8.9
			c-15.1,1.6-19.9,4.8-19.9,4.8s1.8-15.3,4.3-23.7c0,0,8.8-0.3,15.5-3c5.3-2.1,11.4-9.2,11.4-9.2s-7.7,6.5-11.8,8
			c-4.7,1.8-12.3,2.3-14.5,2.4c2.9-8.9,9.2-24.3,9.2-24.3s-8.8,17.5-11,25.1c-2.2,7.6-3.3,15-3.3,15s-5.4-6.6-11.6-11.1
			c-0.3-2.8-0.8-9.2-0.6-13.4c0.3-6.5,5.5-14.5,5.5-14.5s-6.1,4.9-7,16c-0.4,4.5-0.1,8.6,0.1,10.5c-0.7-0.4-1.4-0.9-2.1-1.2
			c-7.6-3.8-13.5-2.7-13.5-2.7s7.1,0.4,13.2,4c8.8,5.2,15.5,14.6,15.5,14.6s-0.5,4-1.6,8c-2.2,8-23.1,40.6-23.1,40.6
			s-2-12.8-5.2-23.7c1.8-1.9,7.9-9,9-14.4c1-4.8-0.3-12.7-0.3-12.7s0.6,8.1-1.6,14c-2.2,5.9-6.4,9.8-7.8,11c-0.3-1.1-0.7-2.2-1-3.2
			c-3-8.4-3.7-17.2-3.9-21.1c0.1,4.2,0.6,13.8,2.5,21.8c2.5,10.5,6.5,25.8,5.9,30.4c-0.3,2.1-5.8,10.1-5.8,10.1s-4.4-4.9-8.3-11.1
			c0.1-1.9,0.3-4.4,0.5-6.2c0.3-3.1,1.5-7.7,1.5-7.7s-1.7,4.5-2.4,6.8c-0.4,1.4-0.8,3.2-1.1,4.4c-0.6-1-1.1-2.1-1.6-3.2
			c-2.5-5.4-3.3-15.3-3.3-15.3s-1.2,7.6,2.7,17.4c3.7,9.2,9.7,15.9,9.8,18.2c0.1,2.3-14.3,29.9-48.9,60.9
			c-34.3,30.7-51.7,34.2-51.7,34.2s-1.6,1.9-0.9,4.2c0.7,2.3,3.4,3.7,3.4,3.7s35.7-15.1,60.3-42.4c24.6-27.3,32.1-37.5,32.1-37.5
			s7.3-12.7,18.7-17.6c1.7-0.7,3.2-1.4,4.7-1.9c1.3,0.2,3.9,0.7,7,1.6c4.3,1.3,7.6,3.8,7.6,3.8s-1.4-2.1-4.7-4
			c-2.4-1.4-5-2.3-6.3-2.8c6.7-2.3,12.2-3.4,22-6.5c5.7-1.8,12-6.4,16.6-10.2c-4.9,3.4-13,7.8-25.9,11.3c-0.8,0.2-1.6,0.4-2.4,0.7
			c1.9-1.4,4.9-3.7,7.4-5.9c4.1-3.5,7-10.2,7-10.2s-3.7,5.7-7.4,8.9c-3.6,3.2-12,8.6-12,8.6l0.2,0c-24.4,7.8-30,16-30,16
			s8.6-22.1,15.1-27.1c6.6-5,20.4-6.9,30.3-10.3c18.2-6.4,26.6-19.1,26.6-19.1s-13.9,15.8-29.9,18.6c-1.9,0.3-3.7,0.7-5.4,1
			c0.8-2.3,3-8.1,5.3-11.8c2.9-4.7,14.6-14.1,14.6-14.1s-12.2,8.5-16.2,13.8c-3.2,4.3-5.8,10.5-6.6,12.8c-10.9,2.5-17,5.3-17,5.3
			s10.1-17.4,13-22.5C238.5,109.9,241.8,102.6,241.8,102.6z"/>
		<path class="st1" d="M208.5,87.7c0-1.3,0-2.1,0-2.1S208.4,86.3,208.5,87.7z"/>
	</g>
</g>
<g>
	<path class="st4" d="M147.6,165.5c-1.3-3.5-1.3-8.9-1.6-11c-0.9-6.8-3.7-13.9-9.9-17.4c-5-2.9-10.9-3.3-16.5-3.8
		c-7.7-0.7-12.5-5-14.6-12.4c-1.2-4.2-4.5-7.2-6.4-11c-4.5-9.4-0.2-20.1-2.5-29.9c-0.9-3.5-2.7-6.5-3.1-10.2
		c-0.5-4,0.4-7.9,0.7-11.9c0.3-4.1-0.3-8.2,0.1-12.4c0.6-6.7,3.1-12.9,7.5-18c5-5.8,8.5-12.9,13.9-18.3c5.1-5.1,12.4-7.7,19.5-8.6
		c3.5-0.4,7.1-0.8,10.6,0c3.1,0.7,6,2.2,9,2.9c5.4,1.3,11,1.6,15.7,4.7c4.7,3.2,8.2,8,11.2,12.7c3.5,5.7,5.7,11.1,10.7,15.8
		c3.4,3.2,6.2,7,7.5,11.5c1.4,5.3-0.1,10.2-0.2,15.5c-0.1,4.1,0,8,0.9,12.1c1.2,5.5,3,10.9,2.6,16.7c-0.7,8-3.4,16.2-9.1,22.1
		c-7.9,8.1-18.3,11.4-26.2,19.3c-4.1,4.1-6.7,9.5-8.8,14.8c-1.4,3.6-2.2,7.4-3,11.2c-0.5,2.3-1.4,10.1-5.2,9.1
		C149.1,168.5,148.2,167.2,147.6,165.5z"/>
	<g>
		<path class="st1" d="M111.1,74.5c-0.8-1.1-1.2-1.7-1.2-1.7S110.4,73.4,111.1,74.5z"/>
		<path class="st1" d="M190.2,85.8c2.6-6.7,2.6-11.3,2.6-11.3S191.8,80.1,190.2,85.8z"/>
		<path class="st1" d="M190.2,85.8c-2.4,6.3-7,14.3-15.7,22.1c-0.5,0.4-0.9,0.8-1.4,1.3c0.8-2.3,1.9-5.5,2.8-8.4
			c1.5-5.1,0.2-12.3,0.2-12.3s0,6.8-1.3,11.5c-0.9,3.3-3.2,8.9-4.5,11.9c-19.3,18.9-17,31.8-17,31.8s-5-23.2-2.2-31
			c2.8-7.7,13.3-17,19.6-25.3c11.7-15.3,11.7-30.6,11.7-30.6s-2.9,20.8-14.8,32c-1.4,1.3-2.7,2.6-3.9,3.8c-0.6-2.4-1.9-8.4-2.1-12.8
			c-0.2-5.5,4.5-19.8,4.5-19.8s-5.5,13.8-6,20.4c-0.3,5.4,1,12,1.5,14.3c-7.7,8.1-11.3,13.8-11.3,13.8s-1.2-20.1-1.5-25.9
			c-0.3-5.9-1.5-13.8-1.5-13.8s-1-3.6,1.4-7.4c2.1-3.4,7.4-8.7,12-12.8c1.8,0.2,9.3,1,15.1-1c6.9-2.4,8.3-8.9,8.3-8.9
			s-2.9,5.6-9.1,7.9c-4.3,1.6-11.3,1.1-13.1,0.9c0.2-0.1,0.3-0.3,0.5-0.4c8.8-7.4,7.7-17.2,7.7-17.2s-0.7,9.6-10.1,17.4
			c-11.7,9.6-13.9,15-13.9,15s-6.9-13.8-9.5-22.2c0,0,7.2-5.1,11.3-11c3.3-4.7,4.4-14,4.4-14s-2.9,9.7-5.4,13.2
			c-2.9,4.1-9.1,8.7-10.8,10c-2.5-9-5.7-25.3-5.7-25.3s2.2,19.4,4.6,27c2.4,7.6,5.5,14.3,5.5,14.3s-8.2-2.5-15.8-2.9
			c-1.7-2.2-5.7-7.3-7.9-10.9c-3.3-5.6-3.4-15.1-3.4-15.1s-2.3,7.5,3,17.2c2.1,3.9,4.7,7.2,5.9,8.7c-0.8,0-1.6,0.1-2.4,0.2
			c-8.4,1-12.7,5.2-12.7,5.2s6.2-3.6,13.2-4c10.1-0.5,21,3.6,21,3.6s1.8,3.6,3.1,7.6c2.6,7.9,3,46.6,3,46.6s-8.8-9.6-17.3-16.9
			c0.4-2.6,1.7-11.9-0.3-17c-1.8-4.6-7.2-10.4-7.2-10.4s5,6.5,6.4,12.6c1.4,6.2,0.1,11.7-0.5,13.5c-0.9-0.7-1.8-1.4-2.6-2.1
			c-7.2-5.4-12.5-12.3-14.8-15.5c2.4,3.4,8.1,11.2,14.1,16.8c7.9,7.4,19.6,18,21.6,22.1c1,1.9,0.7,11.7,0.7,11.7s-6.4-1.6-13-4.7
			c-0.9-1.7-2.2-3.9-3-5.5c-1.5-2.8-3-7.2-3-7.2s1.1,4.7,1.7,7c0.4,1.4,1,3.1,1.5,4.3c-1-0.6-2.1-1.1-3.1-1.8
			c-5-3.1-11.1-11-11.1-11s3.2,7,11.8,13c8.1,5.7,16.8,7.9,18.2,9.8c1.4,1.9,4.5,32.9-7.4,77.8c-11.8,44.5-24.4,57-24.4,57
			s-0.3,2.5,1.5,4c1.8,1.5,4.9,1.2,4.9,1.2s21.5-32.3,27.1-68.7c5.6-36.4,6.2-49,6.2-49s-0.7-14.3,5.3-25.2c0.7-1.2,1.5-2.4,2.3-3.6
			c1.4-0.6,3.7-1.6,6.3-2.3c4.3-1.3,8.3-0.9,8.3-0.9s-2.3-0.6-6.2-0.4c-2.4,0.1-4.8,0.5-6.2,0.8c6.5-7.8,15.4-14.7,21.1-24.4
			C187.8,93.3,189.1,89.5,190.2,85.8z"/>
	</g>
</g>
</svg>
