<svg id="ѓЊѓCѓ_Ѓ__2" data-name="ѓЊѓCѓ„Ѓ[_2" xmlns="http://www.w3.org/2000/svg" xmlns:xlink="http://www.w3.org/1999/xlink" viewBox="0 0 144.23 182.92"><defs><style>.cls-1{fill:#4dcc0d;}.cls-2{fill:url(#linear-gradient);}.cls-3{fill:#ffe800;}.cls-4{fill:#29ad0d;}.cls-5{fill:#ff9987;}</style><linearGradient id="linear-gradient" x1="100.38" y1="46.5" x2="18.59" y2="183.49" gradientUnits="userSpaceOnUse"><stop offset="0" stop-color="#ff8c1a"/><stop offset="0.18" stop-color="#fc5a15"/><stop offset="0.35" stop-color="#f93111"/><stop offset="0.48" stop-color="#f8180e"/><stop offset="0.57" stop-color="#f70f0d"/></linearGradient></defs><path class="cls-1" d="M114.55,41.52a3.33,3.33,0,0,0-.39.08ZM99.68,50.3C96.78,65,80.92,67,67.4,67.07c10.44-.44,19.93-13.56,23.22-22.5C71.76,51.29,59.55,48,43.28,37.93a31.42,31.42,0,0,0,16.14.64c6-1.57,11.88-3.37,18.69-3a17.36,17.36,0,0,1-7.19-5.24c-5.28-6.2-8.05-15.94-6.8-22.72-.22,12.31,14.5,17.81,24.75,22.75-4.06-3.52.41-18.21.41-18.21-2.6,9.44,9.48,13,10.23,21.44C105.93,25,111.17,9.88,106.58,1c0,0-.21-.6.54-.94s8.45.44,12,2.5c.11,10.23-3,23.1-13.91,32.86l.42.46c6.41.81,16.53-2.36,21.39-5.55-2.79,4.29-7.23,10-12.46,11.18,2.44-.28,8.9,1.93,15,6.26,4.5,3.17,9.33,6.11,14.64,7.31,0,0-14.8,1.58-21.64.22a47.54,47.54,0,0,1-13.1-4.77c10.3,6,9.7,16.67,14.35,26.45l-1.22.58C113.58,73.47,98.84,62.49,99.68,50.3Z"/><path class="cls-2" d="M43.28,37.93C59.55,48,71.76,51.29,90.62,44.57c-3.29,8.94-12.78,22.06-23.22,22.5C80.92,67,96.78,65,99.68,50.3c-.84,12.19,13.9,23.17,22.94,27.27l1.22-.58c-4.65-9.78-4-20.5-14.35-26.45A48.56,48.56,0,0,0,121.24,55c.45.1,1.2,1,1.2,1,11.68,16.35,19.16,38.33,14.68,59-5.3,24.51-27.71,40.53-48.12,52-19.68,11.08-52.88,21.24-72.21,12.59-20-8.93-17.8-61-15-82.16C4.43,78,8.54,56.41,24.87,43.32a56.88,56.88,0,0,1,15.51-8.77l.74,2C41.85,37,42.57,37.49,43.28,37.93Zm27.64-7.64a73.34,73.34,0,0,0-30.54,4.26l.74,2c.73.47,1.45.92,2.16,1.36a31.42,31.42,0,0,0,16.14.64c6-1.57,11.88-3.37,18.69-3A17.36,17.36,0,0,1,70.92,30.29Z"/><path class="cls-3" d="M40.64,156.3a4,4,0,1,1-7.52-2.73c.75-2.07,6.34-5.76,6.34-5.76S41.39,154.22,40.64,156.3Z"/><path class="cls-3" d="M80.56,145.68A4,4,0,0,1,73,143c.76-2.08,6.34-5.76,6.34-5.76S81.31,143.6,80.56,145.68Z"/><path class="cls-3" d="M27.12,128.07a4,4,0,1,1-6.56-4.57c1.26-1.81,7.61-3.93,7.61-3.93S28.38,126.26,27.12,128.07Z"/><path class="cls-3" d="M63.12,124.07a4,4,0,1,1-7.52-2.72c.75-2.07,6.33-5.76,6.33-5.76S63.87,122,63.12,124.07Z"/><path class="cls-3" d="M110,126.27a4,4,0,1,1-7.92-1.09c.29-2.18,5-7,5-7S110.28,124.08,110,126.27Z"/><path class="cls-3" d="M91.91,100a4,4,0,1,1-7.52-2.73c.75-2.07,6.34-5.76,6.34-5.76S92.66,97.92,91.91,100Z"/><path class="cls-3" d="M124.11,98.05a4,4,0,0,1-8-.39c.11-2.2,4.37-7.37,4.37-7.37S124.22,95.84,124.11,98.05Z"/><path class="cls-4" d="M95.74,33.57s-11.9.64-1.75,8.5,19.5,1.25,13-3.37c0,0,1.17,5.43-5.37,4.18C94.12,41.45,90,37,95.74,33.57Z"/><path class="cls-5" d="M43.05,49.63S26.32,47.74,22.1,65.5c-1.71,7.19-.63,14.1,2.76,19.21,3.8,5.73,5.13-22.43,14.89-18.17S63.17,53.67,43.05,49.63Z"/></svg>