<svg xmlns="http://www.w3.org/2000/svg" viewBox="0 0 29.19 32.38"><defs><style>.cls-1{fill:#78a960;}.cls-2{fill:#ea4d19;}.cls-3{fill:#f0875c;}</style></defs><g id="レイヤー_26" data-name="レイヤー 26"><g id="ミニトマト"><path class="cls-1" d="M15.08,7.59c-.85-.54-3-4.08-2.81-6C13.65,3.27,15.45,6.19,16.54,7c.83.59.4.25.4.25,1.81-6,5-7.21,5-7.21l.95.69s-4.62,6.45-4.05,7.18,2.8.37,2.8.37C23.79,7.61,26.42,5,26.42,5S24.07,8.66,21.3,9.5c1.23.47,6.74,1,7.89-.54-.93.95-2.68,3.1-7.34,2.4-2.38-.36-7.55-.62-10.76-3.73S8.21,2.34,8.21,2.34a22.41,22.41,0,0,0,5.58,4.74C14.32,7.35,14.05,7.48,15.08,7.59Z"/><path class="cls-2" d="M26.64,20c0,6.85-6,12.4-13.32,12.4S0,26.83,0,20,5,8,12.35,8c1.79,0,3.18,1.19,4.82,1.47C23.74,10.54,26.64,14.79,26.64,20Z"/><ellipse class="cls-3" cx="4.23" cy="17.67" rx="4.05" ry="2.91" transform="translate(-13.71 14.78) rotate(-67.4)"/></g></g></svg>